<svg width="54" height="65" viewBox="0 0 54 65" fill="none" xmlns="http://www.w3.org/2000/svg">
<path d="M22.0647 21.7405L25.3496 17.9211L24.3812 15.8904L19.2781 15.896L22.0647 21.7405Z" fill="url(#paint0_linear_1_3315)"/>
<path d="M46.2164 2.27344L24.1106 12.3554L28.067 20.6548L50.1727 10.5724L46.2164 2.27344Z" fill="url(#paint1_linear_1_3315)"/>
<path d="M51.6648 20.86C51.3113 20.86 51.025 21.1425 51.025 21.4909V22.5791H45.419C44.9945 22.5791 44.6491 22.2436 44.6491 21.8308V17.219C44.6491 17.1563 44.6372 17.0972 44.62 17.0401C45.4645 16.6496 46.0514 15.8091 46.0514 14.8346C46.0514 14.3474 45.9038 13.8848 45.6277 13.4878L41.1804 15.5161C41.4606 16.4796 42.3215 17.1789 43.369 17.2583V21.8308C43.369 22.9393 44.2886 23.8409 45.4186 23.8409H51.0246V24.9441C51.0246 25.2925 51.3109 25.575 51.6644 25.575C52.018 25.575 52.3043 25.2925 52.3043 24.9441V21.4905C52.3047 21.1425 52.0184 20.86 51.6648 20.86Z" fill="url(#paint2_linear_1_3315)"/>
<g clip-path="url(#clip0_1_3315)">
<path d="M28.7655 33.9333H9.23438V37.1122H28.7655V33.9333Z" fill="url(#paint3_linear_1_3315)"/>
<path d="M10.6985 37.7119H27.3019V50.6971H25.5373V45.7843C25.5373 42.0769 22.6049 39.0601 19.0005 39.0601C15.3961 39.0601 12.4637 42.0763 12.4637 45.7843V50.6971H10.6985V37.7119Z" fill="url(#paint4_linear_1_3315)"/>
<path d="M31.25 51.2961H6.75V52.8663H31.25V51.2961Z" fill="url(#paint5_linear_1_3315)"/>
<path d="M18.9999 39.6602C15.7175 39.6602 13.0464 42.407 13.0464 45.7838V50.6966H24.9534V45.7838C24.9534 42.407 22.2829 39.6602 18.9999 39.6602ZM17.4727 41.9996C17.9476 41.4518 18.3781 40.8578 18.7514 40.2332C18.8576 40.0556 19.1422 40.055 19.2484 40.2332C19.6235 40.859 20.054 41.453 20.5271 41.9996C21.2201 42.7982 21.2201 44.0036 20.5271 44.8016C20.1391 45.2486 19.5826 45.506 18.9993 45.506C18.4965 45.506 18.0135 45.3164 17.6378 44.9714C17.2301 44.597 16.988 44.0822 16.9571 43.5206C16.9256 42.9596 17.1087 42.4196 17.4727 41.9996ZM22.8126 48.9374C22.8767 48.9806 22.9222 49.0502 22.938 49.127C22.9531 49.2056 22.938 49.2866 22.8954 49.3532L22.231 50.3894C22.189 50.456 22.1213 50.5028 22.0466 50.5184C22.0274 50.5232 22.0081 50.5244 21.9877 50.5244C21.9311 50.5244 21.8757 50.5082 21.8279 50.4752L18.9999 48.5576L16.1725 50.4734C16.1241 50.5076 16.0686 50.5238 16.0121 50.5238C15.9922 50.5238 15.973 50.5214 15.9531 50.5166C15.8773 50.5016 15.8108 50.4542 15.7682 50.3876L15.1044 49.3514C15.0157 49.2134 15.0531 49.0268 15.1872 48.9356L17.3736 47.4542L15.1872 45.9716C15.0531 45.8804 15.0157 45.6938 15.1044 45.5558L15.7682 44.5196C15.8108 44.453 15.8773 44.4068 15.9531 44.3906C16.0278 44.3744 16.1077 44.3906 16.1725 44.4338L18.9999 46.3508L21.8279 44.435C21.9615 44.3444 22.1435 44.381 22.231 44.5208L22.8954 45.557C22.938 45.6236 22.9537 45.7046 22.938 45.7832C22.9228 45.8606 22.8773 45.9296 22.8126 45.9728L20.6262 47.4554L22.8126 48.9374Z" fill="url(#paint6_linear_1_3315)"/>
<path d="M16.0955 49.8092L15.752 49.2722L17.9039 47.8142L18.4697 48.1976L16.0955 49.8092Z" fill="url(#paint7_linear_1_3315)"/>
<path d="M21.9044 49.8092L18.0666 47.2064L18.0649 47.2052L15.752 45.6374L16.0955 45.1016L22.248 49.2722L21.9044 49.8092Z" fill="url(#paint8_linear_1_3315)"/>
<path d="M20.0961 47.0954L19.5303 46.712L21.9044 45.1016L22.248 45.6374L20.0961 47.0954Z" fill="url(#paint9_linear_1_3315)"/>
</g>
<defs>
<linearGradient id="paint0_linear_1_3315" x1="22.3138" y1="15.8904" x2="22.3138" y2="21.7405" gradientUnits="userSpaceOnUse">
<stop stop-color="white"/>
<stop offset="1" stop-color="#E1E1E1"/>
</linearGradient>
<linearGradient id="paint1_linear_1_3315" x1="37.1417" y1="2.27344" x2="37.1417" y2="20.6548" gradientUnits="userSpaceOnUse">
<stop stop-color="white"/>
<stop offset="1" stop-color="#E1E1E1"/>
</linearGradient>
<linearGradient id="paint2_linear_1_3315" x1="46.7423" y1="13.4878" x2="46.7423" y2="25.575" gradientUnits="userSpaceOnUse">
<stop stop-color="white"/>
<stop offset="1" stop-color="#E1E1E1"/>
</linearGradient>
<linearGradient id="paint3_linear_1_3315" x1="19" y1="33.9333" x2="19" y2="37.1122" gradientUnits="userSpaceOnUse">
<stop stop-color="white"/>
<stop offset="1" stop-color="#D5D5D5"/>
</linearGradient>
<linearGradient id="paint4_linear_1_3315" x1="19.0002" y1="37.7119" x2="19.0002" y2="50.6971" gradientUnits="userSpaceOnUse">
<stop stop-color="white"/>
<stop offset="1" stop-color="#D5D5D5"/>
</linearGradient>
<linearGradient id="paint5_linear_1_3315" x1="19" y1="51.2961" x2="19" y2="52.8663" gradientUnits="userSpaceOnUse">
<stop stop-color="white"/>
<stop offset="1" stop-color="#D5D5D5"/>
</linearGradient>
<linearGradient id="paint6_linear_1_3315" x1="18.9999" y1="39.6602" x2="18.9999" y2="50.6966" gradientUnits="userSpaceOnUse">
<stop stop-color="white"/>
<stop offset="1" stop-color="#D5D5D5"/>
</linearGradient>
<linearGradient id="paint7_linear_1_3315" x1="17.1108" y1="47.8142" x2="17.1108" y2="49.8092" gradientUnits="userSpaceOnUse">
<stop stop-color="white"/>
<stop offset="1" stop-color="#D5D5D5"/>
</linearGradient>
<linearGradient id="paint8_linear_1_3315" x1="19" y1="45.1016" x2="19" y2="49.8092" gradientUnits="userSpaceOnUse">
<stop stop-color="white"/>
<stop offset="1" stop-color="#D5D5D5"/>
</linearGradient>
<linearGradient id="paint9_linear_1_3315" x1="20.8891" y1="45.1016" x2="20.8891" y2="47.0954" gradientUnits="userSpaceOnUse">
<stop stop-color="white"/>
<stop offset="1" stop-color="#D5D5D5"/>
</linearGradient>
<clipPath id="clip0_1_3315">
<rect width="28" height="36" fill="white" transform="translate(5 29)"/>
</clipPath>
</defs>
</svg>
