<svg width="54" height="65" viewBox="0 0 54 65" fill="none" xmlns="http://www.w3.org/2000/svg">
<path d="M27.037 38.0329C27.392 38.0329 27.6797 37.7548 27.6797 37.4117C27.6797 37.0686 27.392 36.7905 27.037 36.7905C26.682 36.7905 26.3943 37.0686 26.3943 37.4117C26.3943 37.7548 26.682 38.0329 27.037 38.0329Z" fill="url(#paint0_linear_1_3223)"/>
<path d="M51.6804 48.7947H50.0521C49.5644 46.5184 49.7876 44.1028 50.7104 41.9385C50.8441 41.6249 50.6948 41.2639 50.377 41.132C50.0591 41.0009 49.6932 41.1473 49.5591 41.461C48.5723 43.7746 48.3065 46.3492 48.7765 48.7947H45.985C45.4973 46.5184 45.7204 44.1028 46.6433 41.9385C46.777 41.6249 46.6277 41.2639 46.3098 41.132C45.992 41.0009 45.6257 41.1473 45.492 41.461C44.5056 43.7746 44.2398 46.3492 44.7094 48.7947H41.9179C41.4302 46.5184 41.6533 44.1028 42.5762 41.9385C42.7099 41.6249 42.5606 41.2639 42.2427 41.132C41.9245 41.0009 41.559 41.1473 41.4253 41.461C40.4385 43.7746 40.1727 46.3492 40.6427 48.7947H28.126C29.2568 47.3241 31.0319 46.4273 32.9146 46.4172C33.2661 46.4152 33.5495 46.1347 33.5474 45.7907C33.5454 45.448 33.2607 45.1712 32.9109 45.1712C32.9096 45.1712 32.9084 45.1712 32.9072 45.1712C30.9171 45.1821 29.0275 46.0097 27.6691 47.401L27.6625 44.1906C27.7991 44.0874 27.9283 43.9761 28.0435 43.8936C28.8122 43.3416 29.3396 42.5423 29.5463 41.6556C30.4725 41.9466 31.4856 41.8989 32.3937 41.5002C32.7136 41.3598 33.2172 41.238 33.3747 40.8997C33.5187 40.5901 33.3747 40.1243 33.3362 39.8014C33.2267 38.8823 32.7776 38.0422 32.091 37.4267C32.8104 36.7949 33.2722 35.9224 33.3694 34.9629C33.4039 34.6226 33.5446 34.1382 33.3243 33.8379C33.1204 33.5599 32.632 33.4498 32.3247 33.3211C31.4462 32.9532 30.4688 32.9111 29.5738 33.1827C29.3696 32.2604 28.8191 31.4344 28.0079 30.8723C27.7232 30.6752 27.3623 30.3155 26.9878 30.3511C26.6416 30.3839 26.2996 30.7368 26.0313 30.9294C25.2627 31.4814 24.7348 32.2806 24.5281 33.1673C23.6032 32.8772 22.5897 32.9245 21.6808 33.3227C21.3613 33.4631 20.8572 33.5854 20.7001 33.9233C20.5561 34.2329 20.7001 34.6987 20.7387 35.0216C20.8482 35.9406 21.2969 36.7808 21.9839 37.3963C21.2645 38.028 20.8026 38.9009 20.7054 39.8604C20.6673 40.236 20.5139 40.6945 20.7817 41.0215C21.0094 41.2991 21.4322 41.3691 21.7501 41.5023C22.6282 41.8701 23.6061 41.9122 24.501 41.6407C24.7053 42.5629 25.2557 43.3889 26.067 43.951C26.1675 44.0206 26.2762 44.108 26.3902 44.1914L26.3968 47.3925C25.0387 46.0064 23.1532 45.1821 21.1673 45.1712C21.166 45.1712 21.1648 45.1712 21.1636 45.1712C20.8137 45.1712 20.5291 45.4476 20.527 45.7907C20.525 46.1347 20.8084 46.4152 21.1599 46.4172C23.0425 46.4273 24.8177 47.3241 25.9485 48.7947H13.1073C13.5769 46.3496 13.3111 43.775 12.3247 41.461C12.1906 41.1473 11.8247 41.0009 11.5073 41.132C11.1894 41.2639 11.0401 41.6249 11.1738 41.9385C12.0971 44.1028 12.3202 46.518 11.8321 48.7947H9.04059C9.51021 46.3496 9.24443 43.775 8.25801 41.461C8.12389 41.1473 7.75844 41.0009 7.44057 41.132C7.1227 41.2639 6.9734 41.6249 7.10711 41.9385C8.03037 44.1028 8.2535 46.518 7.76582 48.7947H4.9743C5.44434 46.3496 5.17855 43.775 4.19172 41.461C4.05801 41.1473 3.69174 41.0009 3.37387 41.132C3.056 41.2639 2.9067 41.6249 3.04041 41.9385C3.96367 44.1028 4.18639 46.518 3.69871 48.7947H2.06957C1.72463 48.7947 1.44531 49.0703 1.44531 49.4107C1.44531 49.751 1.72463 50.0266 2.06957 50.0266H51.68C52.025 50.0266 52.3043 49.751 52.3043 49.4107C52.3043 49.0703 52.0254 48.7947 51.6804 48.7947ZM25.1216 37.4117C25.1216 36.3822 25.9809 35.5449 27.037 35.5449C28.0936 35.5449 28.9529 36.3822 28.9529 37.4117C28.9529 38.4412 28.0936 39.2785 27.037 39.2785C25.9809 39.2785 25.1216 38.4412 25.1216 37.4117Z" fill="url(#paint1_linear_1_3223)"/>
<path d="M22.0647 21.7405L25.3496 17.9211L24.3812 15.8904L19.2781 15.896L22.0647 21.7405Z" fill="url(#paint2_linear_1_3223)"/>
<path d="M46.2164 2.27344L24.1106 12.3554L28.067 20.6548L50.1727 10.5724L46.2164 2.27344Z" fill="url(#paint3_linear_1_3223)"/>
<path d="M51.6648 20.86C51.3113 20.86 51.025 21.1425 51.025 21.4909V22.5791H45.419C44.9945 22.5791 44.6491 22.2436 44.6491 21.8308V17.219C44.6491 17.1563 44.6372 17.0972 44.62 17.0401C45.4645 16.6496 46.0514 15.8091 46.0514 14.8346C46.0514 14.3474 45.9038 13.8848 45.6277 13.4878L41.1804 15.5161C41.4606 16.4796 42.3215 17.1789 43.369 17.2583V21.8308C43.369 22.9393 44.2886 23.8409 45.4186 23.8409H51.0246V24.9441C51.0246 25.2925 51.3109 25.575 51.6644 25.575C52.018 25.575 52.3043 25.2925 52.3043 24.9441V21.4905C52.3047 21.1425 52.0184 20.86 51.6648 20.86Z" fill="url(#paint4_linear_1_3223)"/>
<defs>
<linearGradient id="paint0_linear_1_3223" x1="27.037" y1="36.7905" x2="27.037" y2="38.0329" gradientUnits="userSpaceOnUse">
<stop stop-color="white"/>
<stop offset="1" stop-color="#E1E1E1"/>
</linearGradient>
<linearGradient id="paint1_linear_1_3223" x1="26.8748" y1="30.3486" x2="26.8748" y2="50.0266" gradientUnits="userSpaceOnUse">
<stop stop-color="white"/>
<stop offset="1" stop-color="#E1E1E1"/>
</linearGradient>
<linearGradient id="paint2_linear_1_3223" x1="22.3138" y1="15.8904" x2="22.3138" y2="21.7405" gradientUnits="userSpaceOnUse">
<stop stop-color="white"/>
<stop offset="1" stop-color="#E1E1E1"/>
</linearGradient>
<linearGradient id="paint3_linear_1_3223" x1="37.1417" y1="2.27344" x2="37.1417" y2="20.6548" gradientUnits="userSpaceOnUse">
<stop stop-color="white"/>
<stop offset="1" stop-color="#E1E1E1"/>
</linearGradient>
<linearGradient id="paint4_linear_1_3223" x1="46.7423" y1="13.4878" x2="46.7423" y2="25.575" gradientUnits="userSpaceOnUse">
<stop stop-color="white"/>
<stop offset="1" stop-color="#E1E1E1"/>
</linearGradient>
</defs>
</svg>
