<svg width="51" height="50" viewBox="0 0 51 50" fill="none" xmlns="http://www.w3.org/2000/svg">
<path d="M38.8593 25C38.8593 27.5959 38.0758 30.1335 36.6079 32.2919C35.1399 34.4503 33.0535 36.1325 30.6124 37.1259C28.1713 38.1193 25.4851 38.3793 22.8937 37.8728C20.3022 37.3664 17.9218 36.1164 16.0535 34.2808C14.1851 32.4452 12.9128 30.1066 12.3973 27.5606C11.8818 25.0146 12.1464 22.3756 13.1575 19.9773C14.1686 17.579 15.8809 15.5292 18.0779 14.087C20.2748 12.6448 22.8577 11.875 25.5 11.875C29.0419 11.8789 32.4376 13.2629 34.9421 15.7235C37.4466 18.1841 38.8554 21.5202 38.8593 25ZM50.4375 25C50.4375 25.1511 50.3978 25.2997 50.322 25.4311C50.2462 25.5626 50.1371 25.6726 50.0051 25.7502L46.4227 27.8626C45.5029 28.4089 44.8142 29.2625 44.4828 30.267C44.1515 31.2715 44.1996 32.3597 44.6184 33.3322L45.6016 35.594C45.656 35.7189 45.68 35.8546 45.6717 35.9902C45.6634 36.1258 45.6231 36.2577 45.554 36.3753C45.4848 36.493 45.3888 36.5932 45.2734 36.6681C45.158 36.7429 45.0264 36.7903 44.8891 36.8066L41.7802 37.1749C40.7895 37.2901 39.8672 37.7297 39.1617 38.4226C38.4563 39.1156 38.0088 40.0217 37.8913 40.995L37.5173 44.0481C37.5008 44.183 37.4526 44.3122 37.3765 44.4256C37.3004 44.5391 37.1984 44.6335 37.0787 44.7015C36.959 44.7695 36.8248 44.8092 36.6868 44.8174C36.5487 44.8256 36.4107 44.8021 36.2835 44.7488L33.9816 43.7832C32.9918 43.3713 31.8839 43.3237 30.8612 43.6492C29.8385 43.9747 28.9695 44.6515 28.4135 45.5554L26.2639 49.075C26.1848 49.2046 26.0729 49.3118 25.9391 49.3862C25.8052 49.4606 25.6541 49.4997 25.5003 49.4997C25.3465 49.4997 25.1954 49.4606 25.0616 49.3862C24.9278 49.3118 24.8158 49.2046 24.7367 49.075L22.5867 45.5557C22.0311 44.6515 21.1622 43.9745 20.1394 43.649C19.1167 43.3234 18.0088 43.3712 17.019 43.7835L14.7168 44.7488C14.5896 44.8021 14.4515 44.8256 14.3135 44.8174C14.1755 44.8092 14.0413 44.7695 13.9216 44.7015C13.8019 44.6335 13.6999 44.5391 13.6238 44.4256C13.5477 44.3122 13.4995 44.183 13.483 44.0481L13.109 40.9943C12.9914 40.0212 12.5439 39.1152 11.8385 38.4224C11.1331 37.7295 10.2109 37.2901 9.22031 37.1748L6.11105 36.8066C5.97376 36.7903 5.8422 36.7429 5.7268 36.6681C5.6114 36.5932 5.51533 36.493 5.4462 36.3753C5.37706 36.2577 5.33676 36.1258 5.32849 35.9902C5.32022 35.8546 5.34421 35.7189 5.39855 35.594L6.3818 33.3322C6.80059 32.3597 6.8487 31.2715 6.51733 30.267C6.18596 29.2625 5.49729 28.4089 4.57748 27.8626L0.994765 25.7502C0.862922 25.6725 0.753814 25.5625 0.678063 25.4311C0.602313 25.2996 0.5625 25.1511 0.5625 25C0.5625 24.849 0.602313 24.7005 0.678063 24.569C0.753814 24.4375 0.862922 24.3275 0.994765 24.2498L4.57721 22.1375C5.49714 21.5913 6.18594 20.7377 6.5174 19.7332C6.84886 18.7286 6.80078 17.6404 6.38198 16.6678L5.39855 14.406C5.34421 14.2811 5.32022 14.1455 5.32849 14.0099C5.33676 13.8743 5.37706 13.7424 5.4462 13.6247C5.51533 13.5071 5.6114 13.4069 5.7268 13.332C5.8422 13.2571 5.97376 13.2097 6.11105 13.1935L9.21995 12.8252C10.2106 12.7099 11.1329 12.2703 11.8383 11.5773C12.5437 10.8843 12.9912 9.97827 13.1086 9.00502L13.4827 5.95197C13.4991 5.81704 13.5473 5.68773 13.6234 5.57427C13.6996 5.46082 13.8016 5.36636 13.9213 5.29836C14.0411 5.23036 14.1753 5.19071 14.3134 5.18253C14.4515 5.17436 14.5896 5.1979 14.7168 5.25127L17.0186 6.21684C18.0085 6.62926 19.1165 6.67706 20.1394 6.35147C21.1622 6.02587 22.0312 5.34872 22.5867 4.44435L24.7363 0.924749C24.8214 0.802969 24.9354 0.703371 25.0685 0.634558C25.2015 0.565745 25.3496 0.529785 25.5 0.529785C25.6503 0.529785 25.7984 0.565745 25.9314 0.634558C26.0645 0.703371 26.1785 0.802969 26.2636 0.924749L28.4132 4.44435C28.9691 5.34829 29.838 6.02507 30.8607 6.35058C31.8833 6.67609 32.9911 6.62851 33.9809 6.21657L36.2831 5.25127C36.4103 5.19797 36.5484 5.17448 36.6864 5.18269C36.8244 5.1909 36.9586 5.23057 37.0783 5.29856C37.198 5.36655 37.3 5.46099 37.3761 5.5744C37.4522 5.68782 37.5004 5.81709 37.5169 5.95197L37.891 9.00572C38.0085 9.97886 38.456 10.8848 39.1614 11.5777C39.8668 12.2705 40.7891 12.71 41.7796 12.8253L44.8885 13.1936C45.0258 13.2098 45.1574 13.2572 45.2728 13.3321C45.3882 13.4069 45.4842 13.5072 45.5534 13.6248C45.6225 13.7425 45.6628 13.8743 45.6711 14.01C45.6793 14.1456 45.6553 14.2812 45.601 14.4061L44.6178 16.6679C44.199 17.6404 44.1509 18.7286 44.4822 19.7331C44.8136 20.7377 45.5023 21.5913 46.4221 22.1376L50.005 24.2499C50.1369 24.3275 50.2461 24.4375 50.3219 24.5689C50.3977 24.7004 50.4375 24.8489 50.4375 25ZM40.6406 25C40.6406 22.058 39.7526 19.1821 38.0889 16.7359C36.4253 14.2897 34.0606 12.3832 31.294 11.2573C28.5274 10.1315 25.4832 9.83689 22.5462 10.4108C19.6092 10.9848 16.9114 12.4015 14.7939 14.4818C12.6765 16.5621 11.2345 19.2126 10.6503 22.0981C10.066 24.9835 10.3659 27.9744 11.5118 30.6924C12.6578 33.4105 14.5984 35.7337 17.0883 37.3681C19.5781 39.0026 22.5054 39.875 25.5 39.875C29.5141 39.8706 33.3626 38.302 36.201 35.5134C39.0395 32.7247 40.6361 28.9438 40.6406 25Z" fill="url(#paint0_linear_1_3184)"/>
<defs>
<linearGradient id="paint0_linear_1_3184" x1="25.5" y1="0.529785" x2="25.5" y2="49.4997" gradientUnits="userSpaceOnUse">
<stop stop-color="white"/>
<stop offset="1" stop-color="#CBCBCB"/>
</linearGradient>
</defs>
</svg>
