<svg width="51" height="65" viewBox="0 0 51 65" fill="none" xmlns="http://www.w3.org/2000/svg">
<path d="M28.3377 35.765C26.2714 35.765 24.5908 37.533 24.5908 39.706C24.5908 41.8791 26.2718 43.6471 28.3377 43.6471C30.4036 43.6471 32.0846 41.8791 32.0846 39.706C32.0846 37.533 30.404 35.765 28.3377 35.765Z" fill="url(#paint0_linear_1_3271)"/>
<path d="M34.7558 30.3363V7.72159C34.7558 4.02391 31.8767 1.01562 28.3378 1.01562C24.7985 1.01562 21.9193 4.02391 21.9193 7.72159V30.3363C19.102 32.4687 17.429 35.8975 17.429 39.5757C17.429 45.8664 22.3226 50.9844 28.3378 50.9844C34.353 50.9844 39.2462 45.8664 39.2462 39.5757C39.2462 35.8975 37.5736 32.4683 34.7558 30.3363ZM28.3378 44.8658C25.6125 44.8658 23.3956 42.5514 23.3956 39.7061C23.3956 37.0723 25.2965 34.8973 27.7401 34.5877V8.81034C27.7401 8.47397 28.0079 8.20097 28.3378 8.20097C28.6677 8.20097 28.9354 8.47397 28.9354 8.81034V34.5881C31.3794 34.8977 33.28 37.0728 33.28 39.7065C33.28 42.5514 31.0631 44.8658 28.3378 44.8658Z" fill="url(#paint1_linear_1_3271)"/>
<path d="M18.1931 10.0726H12.3516C12.0217 10.0726 11.7539 9.79963 11.7539 9.46326C11.7539 9.12688 12.0217 8.85388 12.3516 8.85388H18.1931C18.523 8.85388 18.7907 9.12688 18.7907 9.46326C18.7907 9.79963 18.523 10.0726 18.1931 10.0726Z" fill="url(#paint2_linear_1_3271)"/>
<path d="M18.1931 15.516H12.3516C12.0217 15.516 11.7539 15.243 11.7539 14.9066C11.7539 14.5702 12.0217 14.2972 12.3516 14.2972H18.1931C18.523 14.2972 18.7907 14.5702 18.7907 14.9066C18.7907 15.243 18.523 15.516 18.1931 15.516Z" fill="url(#paint3_linear_1_3271)"/>
<path d="M18.1931 20.9812H12.3516C12.0217 20.9812 11.7539 20.7082 11.7539 20.3718C11.7539 20.0355 12.0217 19.7625 12.3516 19.7625H18.1931C18.523 19.7625 18.7907 20.0355 18.7907 20.3718C18.7907 20.7082 18.523 20.9812 18.1931 20.9812Z" fill="url(#paint4_linear_1_3271)"/>
<defs>
<linearGradient id="paint0_linear_1_3271" x1="28.3377" y1="35.765" x2="28.3377" y2="43.6471" gradientUnits="userSpaceOnUse">
<stop stop-color="#FF005C"/>
<stop offset="1" stop-color="#D71C1C"/>
</linearGradient>
<linearGradient id="paint1_linear_1_3271" x1="28.3376" y1="1.01562" x2="28.3376" y2="50.9844" gradientUnits="userSpaceOnUse">
<stop stop-color="#FF005C"/>
<stop offset="1" stop-color="#D71C1C"/>
</linearGradient>
<linearGradient id="paint2_linear_1_3271" x1="15.2723" y1="8.85388" x2="15.2723" y2="10.0726" gradientUnits="userSpaceOnUse">
<stop stop-color="#FF005C"/>
<stop offset="1" stop-color="#D71C1C"/>
</linearGradient>
<linearGradient id="paint3_linear_1_3271" x1="15.2723" y1="14.2972" x2="15.2723" y2="15.516" gradientUnits="userSpaceOnUse">
<stop stop-color="#FF005C"/>
<stop offset="1" stop-color="#D71C1C"/>
</linearGradient>
<linearGradient id="paint4_linear_1_3271" x1="15.2723" y1="19.7625" x2="15.2723" y2="20.9812" gradientUnits="userSpaceOnUse">
<stop stop-color="#FF005C"/>
<stop offset="1" stop-color="#D71C1C"/>
</linearGradient>
</defs>
</svg>
