<svg width="55" height="68" viewBox="0 0 55 68" fill="none" xmlns="http://www.w3.org/2000/svg">
<g clip-path="url(#clip0_1_3198)">
<path d="M48.5833 38.116C48.5833 37.3905 47.9877 36.797 47.26 36.797H45.9367V32.8401C45.9367 32.1146 45.3411 31.5211 44.6133 31.5211C43.8856 31.5211 43.29 32.1146 43.29 32.8401V36.797H41.9667V32.8401C41.9667 32.1146 41.3712 31.5211 40.6434 31.5211C39.9157 31.5211 39.3201 32.1146 39.3201 32.8401V36.797H37.9965V32.8401C37.9965 32.1146 37.401 31.5211 36.6732 31.5211C35.9455 31.5211 35.3499 32.1146 35.3499 32.8401V36.797H34.0266V32.8401C34.0266 32.1146 33.431 31.5211 32.7033 31.5211C31.9755 31.5211 31.38 32.1146 31.38 32.8401V36.797H30.0304V28.8831H31.4065C32.1474 28.8831 32.7298 28.3028 32.7298 27.5641V24.9262H35.3499V26.1924C35.3499 26.9179 35.9455 27.5113 36.6732 27.5113H40.7093C41.4372 27.5113 42.0326 26.9179 42.0326 26.1924V20.9693C42.0326 20.2437 41.4372 19.6503 40.7093 19.6503H36.6732C35.9455 19.6503 35.3499 20.2437 35.3499 20.9693V22.2882H32.7298V21.5231C32.7298 18.4235 30.2153 15.9043 27.1057 15.9043H26.444C23.3341 15.9043 20.8066 18.4237 20.8066 21.5231V22.2882H18.1997C18.1865 22.2882 18.1733 22.3014 18.1468 22.3014V20.9561C18.1468 20.2305 17.5645 19.6371 16.8235 19.6371H12.8533C12.1255 19.6371 11.53 20.2305 11.53 20.9561V26.4168C11.53 27.1421 12.1255 27.7357 12.8533 27.7357H16.8232C17.5642 27.7357 18.1465 27.1421 18.1465 26.4168V24.9263H20.8063V27.5642C20.8063 28.3029 21.4019 28.8832 22.1296 28.8832H23.4926V36.7972H22.1165V32.8403C22.1165 32.1147 21.521 31.5213 20.7932 31.5213C20.0655 31.5213 19.4699 32.1147 19.4699 32.8403V36.7972H18.1466V32.8403C18.1466 32.1147 17.5511 31.5213 16.8233 31.5213C16.0956 31.5213 15.5 32.1147 15.5 32.8403V36.7972H14.1767V32.8403C14.1767 32.1147 13.5812 31.5213 12.8534 31.5213C12.1257 31.5213 11.5301 32.1147 11.5301 32.8403V36.7972H10.2066V32.9324C10.2066 32.2071 9.61109 31.6135 8.88334 31.6135C8.1556 31.6135 7.56004 32.2071 7.56004 32.9324V36.8104C6.85876 36.8367 6.28967 37.417 6.28967 38.1161C6.28967 38.8548 6.88508 39.4351 7.61298 39.4351H47.2598C47.9876 39.4349 48.5833 38.8547 48.5833 38.116ZM27.3836 36.7705H26.1396V28.9093H27.3836V36.7705Z" fill="url(#paint0_linear_1_3198)"/>
<path d="M2.77112 19.7L3.87606 20.4252C4.09966 20.572 4.35296 20.6429 4.60227 20.6429C5.03254 20.6429 5.4539 20.4343 5.70843 20.0491C6.11039 19.4411 5.94111 18.6232 5.33109 18.2226L4.22616 17.4974C3.61875 17.0981 2.79682 17.2655 2.39363 17.8735C1.99197 18.4815 2.16125 19.2994 2.77112 19.7Z" fill="url(#paint1_linear_1_3198)"/>
<path d="M7.19354 22.5994L8.29847 23.3246C8.52208 23.4714 8.77538 23.5423 9.02468 23.5423C9.45496 23.5423 9.87631 23.3337 10.1308 22.9485C10.5328 22.3405 10.3635 21.5227 9.75351 21.122L8.64857 20.3968C8.03994 19.9975 7.21801 20.1649 6.81604 20.7729C6.41408 21.3809 6.58352 22.1988 7.19354 22.5994Z" fill="url(#paint2_linear_1_3198)"/>
<path d="M4.58045 29.5292C5.21232 29.1621 5.42438 28.3544 5.05597 27.7258C4.68894 27.0972 3.8787 26.8834 3.24668 27.2518L2.78408 27.521C2.15221 27.8881 1.94014 28.6958 2.30856 29.3244C2.55417 29.7444 2.99737 29.9787 3.45227 29.9787C3.67849 29.9787 3.90841 29.9208 4.11785 29.7984L4.58045 29.5292Z" fill="url(#paint3_linear_1_3198)"/>
<path d="M7.34605 27.7182C7.57227 27.7182 7.80095 27.6602 8.01024 27.5392L9.15395 26.8758C9.78583 26.51 9.99912 25.7024 9.63209 25.0724C9.26383 24.4412 8.45344 24.2288 7.8228 24.5959L6.67908 25.2593C6.04721 25.6251 5.83392 26.4327 6.20095 27.0626C6.44656 27.4838 6.88991 27.7182 7.34605 27.7182Z" fill="url(#paint4_linear_1_3198)"/>
<path d="M43.7465 26.1055L44.8514 26.8307C45.075 26.9775 45.3283 27.0484 45.5776 27.0484C46.0079 27.0484 46.4292 26.8398 46.6838 26.4546C47.0857 25.8466 46.9165 25.0288 46.3064 24.6281L45.2015 23.9029C44.5941 23.5036 43.7722 23.671 43.369 24.279C42.9673 24.887 43.1366 25.705 43.7465 26.1055Z" fill="url(#paint5_linear_1_3198)"/>
<path d="M50.729 27.5275L49.6241 26.8023C49.0154 26.4031 48.1935 26.5704 47.7916 27.1784C47.3896 27.7864 47.5589 28.6043 48.1689 29.0049L49.2738 29.7302C49.4974 29.8769 49.7507 29.9478 50 29.9478C50.4303 29.9478 50.8517 29.7392 51.1062 29.3541C51.5082 28.746 51.3389 27.9282 50.729 27.5275Z" fill="url(#paint6_linear_1_3198)"/>
<path d="M49.5879 20.1547C49.8141 20.1547 50.0428 20.0967 50.2509 19.9757L50.7135 19.7077C51.3453 19.3419 51.5612 18.5356 51.193 17.9058C50.8247 17.2733 50.0119 17.0608 49.3851 17.4278L48.9225 17.6958C48.2906 18.0616 48.0747 18.868 48.443 19.4978C48.6884 19.9203 49.1316 20.1547 49.5879 20.1547Z" fill="url(#paint7_linear_1_3198)"/>
<path d="M43.8693 22.1551C44.1149 22.5763 44.5581 22.8107 45.0142 22.8107C45.2405 22.8107 45.4691 22.7527 45.6784 22.6317L46.8221 21.9683C47.454 21.6024 47.6673 20.7949 47.3003 20.1649C46.932 19.5337 46.1216 19.3225 45.491 19.6883L44.3473 20.3517C43.7155 20.7176 43.5023 21.5251 43.8693 22.1551Z" fill="url(#paint8_linear_1_3198)"/>
</g>
<defs>
<linearGradient id="paint0_linear_1_3198" x1="27.4365" y1="15.9043" x2="27.4365" y2="39.4351" gradientUnits="userSpaceOnUse">
<stop stop-color="white"/>
<stop offset="1" stop-color="#E3E3E3"/>
</linearGradient>
<linearGradient id="paint1_linear_1_3198" x1="4.05114" y1="17.2805" x2="4.05114" y2="20.6429" gradientUnits="userSpaceOnUse">
<stop stop-color="white"/>
<stop offset="1" stop-color="#E3E3E3"/>
</linearGradient>
<linearGradient id="paint2_linear_1_3198" x1="8.47347" y1="20.1799" x2="8.47347" y2="23.5423" gradientUnits="userSpaceOnUse">
<stop stop-color="white"/>
<stop offset="1" stop-color="#E3E3E3"/>
</linearGradient>
<linearGradient id="paint3_linear_1_3198" x1="3.68226" y1="27.0713" x2="3.68226" y2="29.9787" gradientUnits="userSpaceOnUse">
<stop stop-color="white"/>
<stop offset="1" stop-color="#E3E3E3"/>
</linearGradient>
<linearGradient id="paint4_linear_1_3198" x1="7.91652" y1="24.416" x2="7.91652" y2="27.7182" gradientUnits="userSpaceOnUse">
<stop stop-color="white"/>
<stop offset="1" stop-color="#E3E3E3"/>
</linearGradient>
<linearGradient id="paint5_linear_1_3198" x1="45.0265" y1="23.686" x2="45.0265" y2="27.0484" gradientUnits="userSpaceOnUse">
<stop stop-color="white"/>
<stop offset="1" stop-color="#E3E3E3"/>
</linearGradient>
<linearGradient id="paint6_linear_1_3198" x1="49.4489" y1="26.5854" x2="49.4489" y2="29.9478" gradientUnits="userSpaceOnUse">
<stop stop-color="white"/>
<stop offset="1" stop-color="#E3E3E3"/>
</linearGradient>
<linearGradient id="paint7_linear_1_3198" x1="49.818" y1="17.248" x2="49.818" y2="20.1547" gradientUnits="userSpaceOnUse">
<stop stop-color="white"/>
<stop offset="1" stop-color="#E3E3E3"/>
</linearGradient>
<linearGradient id="paint8_linear_1_3198" x1="45.5848" y1="19.509" x2="45.5848" y2="22.8107" gradientUnits="userSpaceOnUse">
<stop stop-color="white"/>
<stop offset="1" stop-color="#E3E3E3"/>
</linearGradient>
<clipPath id="clip0_1_3198">
<rect width="53.8617" height="67.1064" fill="white" transform="translate(0.361694 0.893555)"/>
</clipPath>
</defs>
</svg>
