<svg width="51" height="50" viewBox="0 0 51 50" fill="none" xmlns="http://www.w3.org/2000/svg">
<path d="M32.7723 2.76693L34.9653 1.93966C35.2761 1.82232 35.4319 1.47858 35.3131 1.17106C35.1948 0.863933 34.8458 0.709977 34.5354 0.827314L30.6558 2.29088C30.2861 2.43066 30.1518 2.9012 30.3936 3.21108L33.1891 6.78869C33.6612 7.39152 34.6163 6.66702 34.1429 6.06065L32.4727 3.92337C39.9107 6.32524 45.7327 12.5296 47.5456 20.1628C47.6105 20.4372 47.8584 20.6223 48.1317 20.6223C48.5138 20.6223 48.8054 20.2573 48.7186 19.8907C46.8041 11.8287 40.6407 5.27984 32.7723 2.76693Z" fill="url(#paint0_linear_1_3159)"/>
<path d="M20.7287 2.71816C20.6522 2.39843 20.3271 2.20037 20.0036 2.27637C11.8962 4.18094 5.31157 10.3108 2.78627 18.1378L1.9631 15.9789C1.84556 15.6713 1.49932 15.5162 1.18695 15.632C0.875766 15.7477 0.718782 16.0915 0.835922 16.399L2.30735 20.2577C2.448 20.6275 2.92692 20.7602 3.24248 20.5168L6.83878 17.7362C7.10095 17.5338 7.14677 17.1593 6.94198 16.9006C6.73678 16.6419 6.35787 16.5959 6.09609 16.7987L3.9517 18.4567C6.35986 11.0436 12.6002 5.23973 20.2825 3.43517C20.606 3.35879 20.806 3.03788 20.7287 2.71816C20.6522 2.39843 20.806 3.03788 20.7287 2.71816Z" fill="url(#paint1_linear_1_3159)"/>
<path d="M20.7786 47.7233L18.4385 43.8362C18.2684 43.5531 17.8975 43.4613 17.613 43.6291C17.3269 43.7972 17.2329 44.1626 17.403 44.4453L18.8892 46.9141C11.2838 44.5961 5.30684 38.3166 3.46605 30.5633C3.38995 30.2432 3.06602 30.0455 2.74209 30.1195C2.41816 30.1947 2.21735 30.5152 2.29345 30.8354C4.20077 38.8683 10.3263 45.3978 18.1544 47.9304L16.0878 48.4364C15.3351 48.6206 15.6224 49.7759 16.3774 49.5924L20.406 48.6061C20.7897 48.5116 20.9814 48.06 20.7786 47.7233Z" fill="url(#paint2_linear_1_3159)"/>
<path d="M50.1605 34.3484L48.6891 30.4896C48.5488 30.1207 48.0683 29.988 47.7543 30.2305L44.158 33.0112C43.8955 33.2136 43.8497 33.5881 44.0544 33.8467C44.2596 34.1054 44.6394 34.1511 44.8999 33.9487L47.0599 32.2788C44.6489 39.688 38.4082 45.4872 30.7287 47.2909C30.0541 47.4496 30.1777 48.4659 30.8674 48.4659C30.9132 48.4659 30.9602 48.4604 31.0068 48.4497C39.1027 46.5483 45.6801 40.4318 48.2133 32.6202L49.0321 34.7681C49.3067 35.4851 50.4342 35.067 50.1605 34.3484Z" fill="url(#paint3_linear_1_3159)"/>
<path d="M25.9374 15.6626C25.7099 15.4224 25.2864 15.4224 25.0589 15.6626C24.762 15.9752 17.7914 23.3679 17.7914 27.3892C17.7914 31.5437 21.249 34.9232 25.4984 34.9232C29.7477 34.9232 33.2053 31.5433 33.2053 27.3892C33.2049 23.3679 26.2343 15.9752 25.9374 15.6626ZM22.9607 26.7234C22.9607 27.0522 22.691 27.3187 22.3583 27.3187C22.0256 27.3187 21.7558 27.0522 21.7558 26.7234V25.1315C21.7558 24.8027 22.0256 24.5361 22.3583 24.5361C22.691 24.5361 22.9607 24.8027 22.9607 25.1315V26.7234ZM26.1004 31.1043C26.1004 31.433 25.8307 31.6996 25.498 31.6996C25.1653 31.6996 24.8955 31.433 24.8955 31.1043V29.5123C24.8955 29.1835 25.1653 28.917 25.498 28.917C25.8307 28.917 26.1004 29.1835 26.1004 29.5123V31.1043ZM26.1004 22.3425C26.1004 22.6713 25.8307 22.9379 25.498 22.9379C25.1653 22.9379 24.8955 22.6713 24.8955 22.3425V20.7506C24.8955 20.4218 25.1653 20.1553 25.498 20.1553C25.8307 20.1553 26.1004 20.4218 26.1004 20.7506V22.3425ZM29.2405 26.7234C29.2405 27.0522 28.9707 27.3187 28.638 27.3187C28.3053 27.3187 28.0356 27.0522 28.0356 26.7234V25.1315C28.0356 24.8027 28.3053 24.5361 28.638 24.5361C28.9707 24.5361 29.2405 24.8027 29.2405 25.1315V26.7234Z" fill="url(#paint4_linear_1_3159)"/>
<defs>
<linearGradient id="paint0_linear_1_3159" x1="39.5029" y1="0.787964" x2="39.5029" y2="20.6223" gradientUnits="userSpaceOnUse">
<stop stop-color="#1F9FC7"/>
<stop offset="1" stop-color="#4FC2F3"/>
</linearGradient>
<linearGradient id="paint1_linear_1_3159" x1="10.7741" y1="2.26013" x2="10.7741" y2="20.6401" gradientUnits="userSpaceOnUse">
<stop stop-color="#1F9FC7"/>
<stop offset="1" stop-color="#4FC2F3"/>
</linearGradient>
<linearGradient id="paint2_linear_1_3159" x1="11.569" y1="30.104" x2="11.569" y2="49.6121" gradientUnits="userSpaceOnUse">
<stop stop-color="#1F9FC7"/>
<stop offset="1" stop-color="#4FC2F3"/>
</linearGradient>
<linearGradient id="paint3_linear_1_3159" x1="40.2424" y1="30.1078" x2="40.2424" y2="48.4659" gradientUnits="userSpaceOnUse">
<stop stop-color="#1F9FC7"/>
<stop offset="1" stop-color="#4FC2F3"/>
</linearGradient>
<linearGradient id="paint4_linear_1_3159" x1="25.4984" y1="15.4824" x2="25.4984" y2="34.9232" gradientUnits="userSpaceOnUse">
<stop stop-color="#1F9FC7"/>
<stop offset="1" stop-color="#4FC2F3"/>
</linearGradient>
</defs>
</svg>
