<svg width="46" height="57" viewBox="0 0 46 57" fill="none" xmlns="http://www.w3.org/2000/svg">
<path d="M13.5212 17.2136C13.5285 17.2149 13.5354 17.2099 13.5432 17.2127L14.0437 17.3996C14.0497 17.4024 14.0511 17.4087 14.0557 17.411C14.0612 17.4138 14.0672 17.411 14.0727 17.4147L14.5787 17.7567C14.5828 17.7594 14.5824 17.7649 14.5865 17.7676C14.5902 17.7708 14.5953 17.7694 14.5985 17.7726L15.0755 18.2464C15.0783 18.2492 15.0773 18.2542 15.0801 18.2569C15.0829 18.2596 15.0875 18.2596 15.0898 18.2633L15.5047 18.8351C15.507 18.8388 15.5051 18.8424 15.5074 18.8456C15.5093 18.8493 15.5143 18.8493 15.5162 18.8529L15.8409 19.4858C15.8428 19.4899 15.84 19.4936 15.8419 19.4968C15.8432 19.5009 15.8478 19.5018 15.8492 19.5059L16.0627 20.1552C16.064 20.1598 16.0604 20.1644 16.0617 20.1685C16.0627 20.1726 16.0677 20.1748 16.0682 20.1789L16.1551 20.8009C16.156 20.8069 16.151 20.8105 16.151 20.816C16.1514 20.8215 16.1565 20.8256 16.156 20.8306L16.1096 21.3837C16.1087 21.3915 16.1018 21.3951 16.0999 21.4024C16.0985 21.4097 16.1031 21.4156 16.1004 21.422L15.9964 21.6856L36.8307 9.76117L38.6238 8.73517L38.8842 8.46066L39.0424 8.05892L39.0857 7.54045L39.0029 6.94628L38.7963 6.31746L38.4808 5.70277L38.0783 5.14827L37.6192 4.69273L37.1366 4.36669L36.673 4.19295L36.2622 4.17517L35.9098 4.30969L13.3928 17.199L13.5005 17.2035C13.5087 17.2045 13.5129 17.2118 13.5212 17.2136Z" fill="url(#paint0_linear_7899_150)"/>
<path d="M12.557 19.9938L12.8744 20.6103L13.2764 21.1643L13.7364 21.6208L14.2167 21.9459L14.6813 22.1192L15.092 22.137L15.4251 22.0097L15.6781 21.7434L15.8363 21.3417L15.8796 20.8237L15.7963 20.2291L15.5902 19.6016L15.2742 18.9855L14.8726 18.4315L14.4131 17.9755L13.931 17.6499L13.4669 17.4762L13.0561 17.4589L12.7235 17.5861L12.47 17.8528L12.3113 18.2546L12.2736 18.7069V18.7074L12.2686 18.7712L12.3523 19.3677L12.557 19.9938Z" fill="url(#paint1_linear_7899_150)"/>
<path d="M11.2033 19.4753C11.2116 19.4767 11.2185 19.4717 11.2263 19.4744L11.7268 19.6618C11.7328 19.6641 11.7342 19.6705 11.7388 19.6732C11.7443 19.676 11.7503 19.6732 11.7553 19.6764L12.2613 20.0184C12.2655 20.0212 12.2655 20.0271 12.2691 20.0298C12.2728 20.0325 12.2779 20.0316 12.2806 20.0344L12.0865 19.4398C12.0851 19.4356 12.0884 19.432 12.0874 19.4279C12.0865 19.4238 12.0819 19.4211 12.081 19.4165L12.0125 18.9249L11.0754 19.4612L11.1831 19.4657C11.1914 19.4667 11.196 19.474 11.2033 19.4753Z" fill="url(#paint2_linear_7899_150)"/>
<path d="M40.6648 14.178L17.9395 27.1845C17.9353 27.1872 17.9303 27.1863 17.9261 27.1881C17.9234 27.189 17.9229 27.1927 17.9202 27.1936L17.6975 27.2793L18.1442 27.5812C18.1483 27.5839 18.1478 27.5894 18.152 27.5926C18.1557 27.5953 18.1607 27.5944 18.1639 27.5971L18.641 28.0709C18.6437 28.0737 18.6428 28.0782 18.6456 28.0814C18.6483 28.0842 18.6529 28.0842 18.6552 28.0878L19.0702 28.6596C19.0725 28.6633 19.0706 28.6669 19.0729 28.6701C19.0748 28.6738 19.0798 28.6738 19.0816 28.6774L19.4064 29.3108C19.4082 29.3144 19.4055 29.3181 19.4073 29.3222C19.4092 29.3258 19.4133 29.3268 19.4147 29.3304L19.6281 29.9797C19.6295 29.9843 19.6258 29.9889 19.6272 29.993C19.6281 29.9975 19.6332 29.9994 19.6336 30.0035L19.7206 30.6259C19.7215 30.6314 19.7164 30.635 19.7164 30.6409C19.7169 30.6464 19.722 30.6501 19.7215 30.6551L19.675 31.2082C19.6741 31.2164 19.6672 31.2196 19.6654 31.2269C19.664 31.2342 19.6686 31.2401 19.6658 31.2465L19.5624 31.5101L41.7592 18.8064L42.1907 18.5597L42.4501 18.2856L42.6093 17.883L42.6516 17.365L42.5688 16.7703L42.3632 16.1429L42.0462 15.5268L41.6456 14.9742L41.1846 14.5163L40.7039 14.1907L40.6648 14.178Z" fill="url(#paint3_linear_7899_150)"/>
<path d="M38.2772 9.25137L36.9699 10.0001L15.7588 22.1397L15.8655 22.1443C15.8738 22.1448 15.8784 22.1521 15.8857 22.1539C15.894 22.1557 15.9009 22.1502 15.9083 22.153L16.4088 22.3404C16.4147 22.3427 16.4161 22.3491 16.4207 22.3513C16.4267 22.3541 16.4327 22.3518 16.4377 22.355L16.9437 22.697C16.9479 22.6997 16.9479 22.7056 16.9516 22.7084C16.9553 22.7111 16.9608 22.7102 16.9635 22.7134L17.4406 23.1867C17.4438 23.1895 17.4424 23.1945 17.4451 23.1972C17.4479 23.1999 17.453 23.1999 17.4548 23.2036L17.8702 23.7759C17.8725 23.7786 17.8706 23.7832 17.8729 23.7855C17.8748 23.7891 17.8798 23.79 17.8817 23.7937L18.2064 24.4261C18.2083 24.4298 18.2055 24.4334 18.2074 24.4375C18.2092 24.4412 18.2133 24.4421 18.2147 24.4457L18.4277 25.096C18.4291 25.1006 18.4259 25.1042 18.4268 25.1083C18.4277 25.1124 18.4323 25.1147 18.4332 25.1188L18.5202 25.7412C18.5211 25.7467 18.516 25.7508 18.516 25.7563C18.5165 25.7618 18.5215 25.7654 18.5211 25.7713L18.4746 26.3245C18.4742 26.3318 18.4668 26.3359 18.465 26.3432C18.4636 26.3495 18.4682 26.3555 18.4654 26.3628L18.3619 26.6254L40.5827 13.908L40.9907 13.675L41.2511 13.401L41.4084 12.9997L41.4516 12.4808L41.3688 11.8861L41.1632 11.2587L40.8463 10.6426L40.4447 10.0886L39.9865 9.63304L39.504 9.30654L39.0394 9.13281L38.6277 9.11548L38.2772 9.25137Z" fill="url(#paint4_linear_7899_150)"/>
<path d="M6.0384 30.9697L5.5324 30.6277C5.52826 30.6249 5.52872 30.6194 5.52458 30.6172C5.5209 30.6135 5.51538 30.6153 5.51216 30.6117L5.03606 30.1379C5.03422 30.1361 5.03468 30.1324 5.03284 30.1306C5.02962 30.127 5.02502 30.1251 5.02226 30.1215L4.60734 29.5488C4.6055 29.546 4.60688 29.5433 4.6055 29.5406C4.60274 29.5369 4.59814 29.5351 4.59584 29.531L4.27016 28.8985C4.26832 28.8949 4.27062 28.8912 4.26924 28.888C4.26786 28.8848 4.26372 28.883 4.26234 28.8784L4.0489 28.2291C4.04752 28.2245 4.05074 28.2209 4.04982 28.2168C4.0489 28.2127 4.0443 28.2104 4.04338 28.2054L3.97576 27.7166L2.50928 28.5556L2.616 28.5602C2.62428 28.5611 2.62888 28.5684 2.63624 28.5697C2.64452 28.5706 2.65142 28.5661 2.65878 28.5688L3.15926 28.7558C3.16478 28.7585 3.16662 28.7649 3.17122 28.7672C3.1772 28.7699 3.18318 28.7672 3.18824 28.7708L3.69424 29.1128C3.69838 29.1156 3.69838 29.121 3.70206 29.1242C3.70574 29.127 3.71126 29.126 3.71402 29.1288L4.19104 29.6026C4.19426 29.6053 4.19288 29.6099 4.19564 29.6131C4.1984 29.6158 4.20346 29.6158 4.2053 29.6194L4.62068 30.1913C4.62298 30.1949 4.62114 30.1986 4.62344 30.2018C4.62528 30.2054 4.63034 30.2054 4.63218 30.209L4.95694 30.8424C4.95878 30.8461 4.95602 30.8497 4.95786 30.8529C4.9597 30.8561 4.96384 30.8584 4.96522 30.862L5.1782 31.5114C5.17958 31.5159 5.17636 31.5196 5.17728 31.5237C5.1782 31.5278 5.1828 31.531 5.18372 31.5351L5.27066 32.1575C5.27158 32.163 5.26652 32.1667 5.26652 32.1726C5.26698 32.1781 5.27204 32.1817 5.27158 32.1867L5.22512 32.7398C5.22466 32.7471 5.2173 32.7512 5.21546 32.7585C5.21408 32.7658 5.21868 32.7718 5.21592 32.7782L5.11196 33.0417L5.63498 32.7435L5.5761 32.3212C5.57518 32.3158 5.58024 32.3117 5.58024 32.3062C5.57978 32.3007 5.57472 32.2971 5.57518 32.2911L5.62072 31.7389C5.62164 31.7307 5.62854 31.7266 5.63038 31.7193C5.63176 31.7129 5.62716 31.707 5.62992 31.6997L5.80564 31.2542C5.80932 31.2451 5.81898 31.2428 5.82404 31.2346C5.8291 31.2273 5.82726 31.2177 5.8337 31.2104L6.0568 30.9751C6.05082 30.9724 6.04438 30.9742 6.0384 30.9697Z" fill="url(#paint5_linear_7899_150)"/>
<path d="M4.70667 30.9583L4.39019 30.3418L3.98815 29.7877L3.52907 29.3317L3.04653 29.0057L2.58285 28.8324L2.17299 28.8151L1.83903 28.9427L1.58603 29.2081L1.42825 29.6099L1.38501 30.1288L1.46827 30.7239L1.67343 31.35L1.99083 31.9665L2.39241 32.5201L2.85057 32.9761L3.33265 33.3012L3.79725 33.4758L4.20803 33.4936L4.54199 33.3655L4.79453 33.0992L4.95185 32.6974L4.99555 32.1799L4.91229 31.5853L4.70667 30.9583Z" fill="url(#paint6_linear_7899_150)"/>
<path d="M17.0366 32.3628C17.038 32.3664 17.0426 32.3673 17.044 32.371L17.096 32.5306L17.1061 32.5046C17.1098 32.4955 17.1194 32.4932 17.1245 32.485C17.1296 32.4768 17.1277 32.4672 17.1342 32.4599L17.4267 32.1525C17.4318 32.1471 17.4396 32.148 17.4456 32.1434C17.4515 32.1389 17.452 32.1311 17.458 32.1275L17.6604 32.0116C17.6539 32.008 17.647 32.0098 17.6411 32.0053L17.1351 31.6633C17.1309 31.6605 17.1314 31.655 17.1273 31.6519C17.1236 31.6491 17.1181 31.65 17.1153 31.6473L16.6383 31.1735C16.636 31.1717 16.6369 31.1689 16.635 31.1671C16.6318 31.1626 16.6268 31.1607 16.624 31.1575L16.2086 30.5848C16.2068 30.5821 16.2082 30.5793 16.2068 30.5766C16.204 30.573 16.1994 30.5711 16.1971 30.567L15.8724 29.9336C15.8705 29.9309 15.8728 29.9273 15.8714 29.9241C15.8696 29.9204 15.8655 29.9186 15.8641 29.9145L15.7031 29.4257L14.5867 30.065L14.6939 30.0695C14.7021 30.0695 14.7063 30.0768 14.7146 30.0787C14.7219 30.0805 14.7288 30.075 14.7366 30.0777L15.2376 30.2656C15.2436 30.2674 15.2449 30.2738 15.25 30.2761C15.2551 30.2784 15.2615 30.277 15.2666 30.2797L15.7725 30.6217C15.7767 30.6245 15.7767 30.6309 15.7804 30.6331C15.7841 30.6354 15.7896 30.635 15.7923 30.6386L16.2694 31.1115C16.2726 31.1142 16.2712 31.1197 16.2739 31.122C16.2767 31.1256 16.2818 31.1247 16.2836 31.1284L16.6985 31.7011C16.7008 31.7038 16.699 31.7084 16.7008 31.7107C16.7031 31.7143 16.7082 31.7152 16.71 31.7189L17.0348 32.3514C17.0376 32.3545 17.0352 32.3582 17.0366 32.3628Z" fill="url(#paint7_linear_7899_150)"/>
<path d="M8.33195 23.4342C8.33977 23.436 8.34713 23.4305 8.35449 23.4333L8.85543 23.6202C8.86141 23.623 8.86279 23.6294 8.86739 23.6316C8.87291 23.6344 8.87889 23.6316 8.88441 23.6353L9.39041 23.9773C9.39455 23.98 9.39409 23.9855 9.39777 23.9878C9.40191 23.9914 9.40743 23.9896 9.41065 23.9933L9.88675 24.467C9.88997 24.4698 9.88859 24.4752 9.89135 24.4775C9.89411 24.4798 9.89871 24.4803 9.90101 24.4839L10.3159 25.0566C10.3182 25.0594 10.3164 25.0639 10.3187 25.0662C10.3205 25.0699 10.3256 25.0708 10.3274 25.0744L10.6531 25.7069C10.655 25.7105 10.6522 25.7151 10.654 25.7183C10.6559 25.7215 10.66 25.7229 10.6614 25.7265L10.8748 26.3768C10.8762 26.3804 10.873 26.385 10.8739 26.3882C10.8748 26.3936 10.8799 26.3955 10.8804 26.3996L10.9664 27.022C10.9673 27.0275 10.9622 27.0316 10.9622 27.0371C10.9627 27.0425 10.9678 27.0462 10.9673 27.0512L10.9213 27.6043C10.9204 27.6125 10.9135 27.6157 10.9116 27.623C10.9103 27.6303 10.9149 27.6362 10.9121 27.6426L10.8081 27.9062L11.7433 27.3708L11.649 27.084C11.6481 27.0813 11.6504 27.0795 11.6495 27.0767C11.6486 27.0731 11.6449 27.0713 11.6444 27.0676L11.5722 26.6978L11.5543 26.2117L11.5662 25.7014C11.5667 25.6923 11.5745 25.6873 11.5759 25.6791C11.5773 25.6709 11.5722 25.6631 11.5754 25.6549L11.7406 25.2345C11.7442 25.2254 11.7539 25.2231 11.759 25.2158C11.764 25.2076 11.7617 25.1971 11.7686 25.1907L12.0612 24.8825C12.0662 24.877 12.0741 24.8788 12.08 24.8742C12.086 24.8697 12.0865 24.8619 12.0925 24.8574L12.443 24.6572L12.3303 24.6526C12.3289 24.6526 12.3284 24.6508 12.3271 24.6508C12.3142 24.6499 12.3004 24.649 12.2875 24.6435L11.787 24.4565C11.7824 24.4547 11.7815 24.4493 11.7774 24.4474C11.7709 24.4447 11.7636 24.4456 11.7576 24.441L11.2516 24.099C11.2474 24.0963 11.2479 24.0908 11.2438 24.0886C11.2401 24.0849 11.235 24.0867 11.2318 24.0831L10.7557 23.6102C10.7539 23.6075 10.7548 23.6047 10.7529 23.6029C10.7493 23.5993 10.7442 23.5974 10.7414 23.5933L10.3261 23.0211C10.3242 23.0183 10.3256 23.0156 10.3242 23.0129C10.3215 23.0087 10.3169 23.0069 10.3146 23.0033L9.99899 22.3909L8.20361 23.4178L8.31125 23.4233C8.31953 23.4251 8.32413 23.4324 8.33195 23.4342Z" fill="url(#paint8_linear_7899_150)"/>
<path d="M4.5213 28.7831L4.83824 29.3987L5.23844 29.9518L5.69936 30.4097L6.18098 30.7348L6.38016 30.8096C6.38016 30.8096 6.38016 30.8096 6.38062 30.8096C6.3866 30.8114 6.3912 30.8169 6.39672 30.8191C6.39994 30.8201 6.40316 30.8173 6.40638 30.8191L6.64558 30.9081L7.05636 30.9258L7.28774 30.8369H7.2882L7.3894 30.7977L7.64332 30.5323L7.80156 30.1306L7.84434 29.6121L7.76108 29.017L7.55546 28.39L7.23898 27.7753L6.83602 27.2186L6.37786 26.7635L5.89532 26.4374L5.43118 26.2637L5.02132 26.2468L4.6869 26.3741L4.43344 26.6394L4.27566 27.0421L4.23794 27.4972L4.23242 27.5597L4.31522 28.1547L4.5213 28.7831Z" fill="url(#paint9_linear_7899_150)"/>
<path d="M7.36874 26.2155L7.68568 26.8311L8.08634 27.3842L8.5468 27.842L9.02796 28.1671L9.22668 28.2419C9.23312 28.2438 9.23772 28.2492 9.2437 28.2515C9.24692 28.2524 9.25014 28.2497 9.25336 28.2515L9.49256 28.3404L9.90242 28.3582L10.1347 28.2693L10.2364 28.2301L10.4894 27.9647L10.6476 27.5629L10.6904 27.0445L10.6085 26.4494L10.4024 25.8224L10.0855 25.2059L9.68484 24.6537L9.22438 24.1949L8.74322 23.8698L8.27862 23.697L7.86784 23.6792L7.53388 23.8064L7.28088 24.0727L7.12264 24.4745L7.08538 24.9295L7.08032 24.992L7.16266 25.5871L7.36874 26.2155Z" fill="url(#paint10_linear_7899_150)"/>
<path d="M5.48457 26.0015C5.49193 26.0034 5.49883 25.9979 5.50665 26.0006L6.00713 26.1876C6.01311 26.1903 6.01449 26.1967 6.01909 26.199C6.02461 26.2017 6.03059 26.199 6.03611 26.2026L6.54211 26.5446C6.54625 26.5474 6.54579 26.5529 6.54993 26.556C6.55361 26.5588 6.55867 26.5579 6.56189 26.5606L7.03891 27.0344C7.04167 27.0371 7.04075 27.0417 7.04351 27.0449C7.04627 27.0476 7.05133 27.0476 7.05363 27.0513L7.46809 27.624C7.47039 27.6267 7.46855 27.6313 7.47085 27.6345C7.47269 27.6372 7.47729 27.6381 7.47913 27.6418L7.80481 28.2743C7.80665 28.2779 7.80435 28.2816 7.80573 28.2847C7.80711 28.2879 7.81171 28.2902 7.81309 28.2939L8.02607 28.9432C8.02745 28.9478 8.02377 28.9523 8.02515 28.9564C8.02607 28.961 8.03113 28.9628 8.03159 28.9669L8.11853 29.5894C8.11945 29.5948 8.11439 29.5989 8.11439 29.6044C8.11485 29.6099 8.11991 29.6135 8.11945 29.6185L8.07345 30.1717C8.07299 30.179 8.06563 30.1831 8.06379 30.1904C8.06241 30.1977 8.06701 30.2036 8.06425 30.21L7.96029 30.4735L8.48239 30.1753L8.42305 29.7531C8.42213 29.7476 8.42719 29.7435 8.42719 29.738C8.42673 29.7325 8.42167 29.7289 8.42213 29.723L8.46859 29.1698C8.46905 29.1625 8.47641 29.1594 8.47825 29.1521C8.47963 29.1448 8.47503 29.1388 8.47779 29.1315L8.65259 28.686C8.65627 28.6769 8.66593 28.6746 8.67145 28.6673C8.67605 28.6591 8.67421 28.6486 8.68111 28.6422L8.90513 28.407C8.89869 28.4033 8.89225 28.4051 8.88627 28.4006L8.38027 28.0586C8.37613 28.0558 8.37659 28.0504 8.37291 28.0481C8.36877 28.0444 8.36325 28.0463 8.36003 28.0426L7.88393 27.5688C7.88163 27.567 7.88255 27.5634 7.88071 27.5615C7.87749 27.5579 7.87243 27.5561 7.87013 27.5524L7.45521 26.9797C7.45337 26.9769 7.45475 26.9742 7.45337 26.9715C7.45061 26.9678 7.44601 26.966 7.44371 26.9619L7.11803 26.3294C7.11619 26.3258 7.11849 26.3221 7.11711 26.3189C7.11527 26.3153 7.11113 26.3135 7.10975 26.3093L6.89631 25.66C6.89493 25.6554 6.89815 25.6518 6.89723 25.6477C6.89631 25.6436 6.89125 25.6413 6.89079 25.6363L6.82317 25.1475L5.35669 25.9865L5.46387 25.992C5.47215 25.9929 5.47675 26.0002 5.48457 26.0015Z" fill="url(#paint11_linear_7899_150)"/>
<path d="M10.2051 22.1497L10.2056 22.1502L10.2405 22.2583L10.557 22.8725L10.9591 23.427L11.4172 23.8821L11.8998 24.2081L12.3634 24.3818L12.7742 24.3996L13.1086 24.2715L13.3612 24.0061L13.5185 23.6044L13.5622 23.0854L13.4789 22.4913L13.2729 21.8643L12.9568 21.2491L12.5539 20.6923L12.0957 20.2382L11.6141 19.9126L11.149 19.7384L10.7387 19.7211L10.4061 19.8483L10.1527 20.1151L9.99398 20.5168L9.95166 21.0343L10.034 21.629L10.2051 22.1497Z" fill="url(#paint12_linear_7899_150)"/>
<path d="M13.4356 30.5734C13.4406 30.5661 13.4383 30.5556 13.4452 30.5492L13.7378 30.241C13.7433 30.2355 13.7507 30.2373 13.7567 30.2327C13.7622 30.2282 13.7631 30.2204 13.7691 30.2159L14.311 29.9058L14.1661 29.8994C14.1647 29.8994 14.1642 29.8985 14.1628 29.8985C14.1495 29.8976 14.1357 29.8958 14.1233 29.8903L13.6228 29.7033C13.6182 29.7024 13.6173 29.6969 13.6131 29.6942C13.6067 29.6915 13.5998 29.6924 13.5938 29.6887L13.0878 29.3467C13.0837 29.344 13.0837 29.3376 13.08 29.3353C13.0763 29.3331 13.0708 29.3335 13.068 29.3299L12.591 28.857C12.5892 28.8552 12.5896 28.8515 12.5883 28.8497C12.5841 28.846 12.5791 28.8442 12.5763 28.8401L12.1618 28.2674C12.16 28.2647 12.1614 28.261 12.16 28.2583C12.1572 28.2546 12.1531 28.2528 12.1508 28.2491L11.8343 27.6335L10.5215 28.385L11.0086 28.7138C11.0128 28.7175 11.0123 28.7229 11.0164 28.7252C11.0201 28.7289 11.0252 28.727 11.0284 28.7307L11.5054 29.2036C11.5082 29.2072 11.5073 29.2118 11.51 29.214C11.5128 29.2177 11.5174 29.2168 11.5197 29.2204L11.9351 29.7932C11.9374 29.7968 11.9355 29.8005 11.9374 29.8037C11.9401 29.8073 11.9447 29.8073 11.9466 29.8109L12.2709 30.4434C12.2727 30.4471 12.2699 30.4516 12.2718 30.4548C12.2732 30.4585 12.2778 30.4594 12.2791 30.463L12.4926 31.1133C12.494 31.1178 12.4903 31.1215 12.4917 31.1256C12.4926 31.1302 12.4976 31.132 12.4981 31.1361L12.585 31.7585C12.586 31.764 12.5809 31.7681 12.5809 31.7736C12.5814 31.779 12.5864 31.7827 12.586 31.7886L12.5404 32.3408C12.5395 32.349 12.5326 32.3522 12.5308 32.3595C12.5294 32.3668 12.534 32.3728 12.5312 32.3801L12.4273 32.6427L13.2594 32.1671L13.1881 31.66C13.1872 31.6536 13.1922 31.6505 13.1922 31.645C13.1918 31.6395 13.1867 31.6354 13.1872 31.6299L13.2332 31.0777C13.2341 31.0663 13.2392 31.0572 13.2428 31.0467C13.2438 31.044 13.241 31.0412 13.2424 31.0385L13.4176 30.593C13.4209 30.5839 13.431 30.5811 13.4356 30.5734Z" fill="url(#paint13_linear_7899_150)"/>
<path d="M13.5453 32.2237C13.5453 32.2246 13.5448 32.2264 13.5448 32.2273L13.7513 32.8598L14.0687 33.4763L14.4703 34.0303L14.9308 34.4863L15.4106 34.8115L15.6534 34.9022H15.6539L15.8756 34.9852L16.2859 35.003L16.6199 34.8749L16.8729 34.6095L16.9962 34.2976L16.9695 34.2164C16.9681 34.2127 16.9713 34.2091 16.9704 34.205C16.9695 34.2009 16.9649 34.1977 16.964 34.1936L16.877 33.5711C16.8761 33.5657 16.8812 33.5616 16.8812 33.5561C16.8807 33.5506 16.8757 33.547 16.8761 33.5411L16.9226 32.9888C16.9235 32.9783 16.9281 32.9683 16.9313 32.9587C16.9322 32.956 16.9304 32.9533 16.9313 32.9514L16.9387 32.9327L16.7855 32.4676L16.469 31.8511L16.0674 31.2971L15.6084 30.842L15.1254 30.515L14.6612 30.3422L14.2509 30.324L13.9174 30.4512L13.6644 30.7175L13.5062 31.1192L13.4634 31.6377L13.5443 32.2218C13.5448 32.2218 13.5448 32.2218 13.5448 32.2218C13.5448 32.2228 13.5448 32.2228 13.5448 32.2228V32.2237H13.5453Z" fill="url(#paint14_linear_7899_150)"/>
<path d="M17.4415 34.7709L17.7575 35.3865L18.1595 35.94L18.6186 36.3951L19.1007 36.7212L19.5648 36.8949L19.8588 36.9081L19.9747 36.9127L20.3091 36.7855L20.5621 36.5201L20.7194 36.1174L20.7627 35.599L20.6799 35.0052L20.4733 34.3773L20.1573 33.7617L19.7557 33.2068L19.2966 32.7517L18.8141 32.4257L18.3504 32.2524L17.9401 32.2341L17.6061 32.3627L17.3531 32.6281L17.2128 32.9842L17.1958 33.0298L17.1526 33.5479L17.2354 34.1429L17.2736 34.2588L17.3936 34.6258V34.6268L17.4415 34.7709Z" fill="url(#paint15_linear_7899_150)"/>
<path d="M8.78175 30.3268L8.98783 30.9538L9.30431 31.5685L9.70727 32.1253L10.165 32.5794L10.648 32.9064L10.7459 32.9429C10.7459 32.9429 10.7459 32.9429 10.7464 32.9429L11.0334 33.0505C11.0399 33.0523 11.0413 33.0596 11.0468 33.0628L11.1001 33.0646C11.1084 33.0655 11.1126 33.0728 11.1204 33.0742C11.1287 33.0751 11.1356 33.0706 11.1434 33.0733L11.1986 33.0938C11.2101 33.092 11.2161 33.0833 11.2285 33.0842L11.5215 33.0965L11.8555 32.9693L12.1085 32.703L12.2672 32.3013L12.3095 31.7828L12.2262 31.1877L12.0201 30.5598L11.7046 29.9451L11.3021 29.3902L10.843 28.9351L10.3609 28.609L10.1847 28.5429L9.97499 28.6232C9.95843 28.6296 9.94187 28.6323 9.92531 28.6323C9.92485 28.6323 9.92485 28.6323 9.92485 28.6323C9.92301 28.6323 9.92117 28.6323 9.91933 28.6323L9.45887 28.6127C9.45749 28.6127 9.45703 28.6118 9.45565 28.6118C9.44231 28.6109 9.42851 28.6091 9.41609 28.6036L9.20541 28.5251L9.15297 28.5457L8.89951 28.8111L8.74219 29.2128L8.69849 29.7313L8.76841 30.2292V30.2301L8.78175 30.3268Z" fill="url(#paint16_linear_7899_150)"/>
<path d="M41.8412 19.0758L19.1388 32.0686C19.1347 32.0713 19.1296 32.0704 19.1255 32.0723C19.1227 32.0732 19.1223 32.0768 19.1195 32.0777L18.895 32.1639L18.9272 32.1753C18.9332 32.1781 18.9346 32.1844 18.9396 32.1867C18.9447 32.1895 18.9507 32.1867 18.9557 32.1904L19.4617 32.5315C19.4659 32.5351 19.4654 32.5406 19.4696 32.5428C19.4732 32.5465 19.4783 32.5447 19.4815 32.5483L19.9585 33.0212C19.9613 33.0248 19.9604 33.0294 19.9631 33.0317C19.9659 33.0353 19.9705 33.0344 19.9728 33.0381L20.3877 33.6108C20.39 33.6145 20.3882 33.6181 20.3905 33.6213C20.3923 33.6249 20.3974 33.6249 20.3992 33.6286L20.724 34.2611C20.7258 34.2656 20.7231 34.2693 20.7249 34.2725C20.7267 34.2756 20.7309 34.277 20.7323 34.2816L20.9457 34.9309C20.9471 34.9355 20.9434 34.94 20.9448 34.9441C20.9457 34.9478 20.9508 34.9505 20.9512 34.9546L21.0382 35.5762C21.0391 35.5825 21.034 35.5857 21.034 35.5912C21.0345 35.5976 21.0395 35.6008 21.0391 35.6063L20.9926 36.1594C20.9917 36.1667 20.9848 36.1708 20.983 36.1781C20.9816 36.1854 20.9862 36.1913 20.9834 36.1977L20.8799 36.4613L42.7626 23.9372L43.5073 23.5104L43.7677 23.2363L43.9268 22.8342L43.9692 22.3161L43.8864 21.7211L43.6807 21.0941L43.3638 20.4776L42.9622 19.9235L42.5022 19.4675L42.0224 19.1424L41.8412 19.0758Z" fill="url(#paint17_linear_7899_150)"/>
<path d="M12.241 25.0941L11.9876 25.3604L11.8413 25.733L11.8293 26.2118L11.845 26.6678L11.914 27.0098L12.0396 27.3919L12.0759 27.5023L12.3919 28.117L12.7949 28.6737L13.253 29.1279L13.736 29.4549L14.1997 29.6277L14.6096 29.6455L14.9435 29.5178L15.1965 29.2515L15.3539 28.8502L15.3971 28.3317L15.3148 27.7376L15.1078 27.1087L14.7927 26.4945L14.3902 25.9396L13.9311 25.4845L13.4485 25.1584L12.9849 24.9847L12.5741 24.9669L12.241 25.0941Z" fill="url(#paint18_linear_7899_150)"/>
<path d="M14.3713 23.5524L14.4045 23.1529C14.4054 23.142 14.4104 23.1324 14.4137 23.1228C14.4146 23.1196 14.4127 23.1169 14.4137 23.1141L14.5885 22.6682C14.5921 22.659 14.6018 22.6568 14.6069 22.649C14.6124 22.6408 14.6101 22.6308 14.6165 22.6239L14.8304 22.3991L14.6478 22.3914C14.6464 22.3914 14.646 22.39 14.6446 22.39C14.6312 22.3891 14.6174 22.3873 14.605 22.3827L14.1045 22.1958C14.0999 22.1939 14.099 22.1885 14.0949 22.1862C14.0884 22.183 14.0815 22.1839 14.0756 22.1802L13.5705 21.8383C13.5663 21.8355 13.5668 21.83 13.5627 21.8273C13.559 21.8241 13.5535 21.8255 13.5507 21.8223L13.5493 21.8209L13.7453 22.4169C13.7467 22.4215 13.7434 22.4256 13.7444 22.4297C13.7453 22.4338 13.7499 22.4361 13.7508 22.4402L13.8377 23.0626C13.8387 23.0681 13.8336 23.0722 13.8336 23.0777C13.8341 23.0831 13.8391 23.0868 13.8387 23.0922L13.7922 23.6445C13.7917 23.6527 13.7844 23.6568 13.7825 23.6641C13.7812 23.6705 13.7858 23.6764 13.783 23.6828L13.6795 23.9463L14.3713 23.5524Z" fill="url(#paint19_linear_7899_150)"/>
<path d="M13.019 24.7121C13.0273 24.7121 13.0314 24.7194 13.0392 24.7212C13.0475 24.723 13.0544 24.7175 13.0622 24.7203L13.5618 24.9072C13.5678 24.91 13.5691 24.9164 13.5742 24.9186C13.5793 24.9214 13.5852 24.9186 13.5903 24.9223L14.0963 25.2643C14.1004 25.267 14.1 25.2725 14.1041 25.2757C14.1078 25.2784 14.1129 25.2775 14.1161 25.2812L14.5931 25.754C14.5959 25.7568 14.5949 25.7622 14.5977 25.7645C14.6005 25.7682 14.6051 25.7672 14.6074 25.7709L15.0227 26.3436C15.025 26.3464 15.0232 26.3509 15.025 26.3541C15.0278 26.3569 15.0324 26.3578 15.0342 26.3614L15.3585 26.9939C15.3604 26.9975 15.3576 27.0012 15.3595 27.0053C15.3613 27.0089 15.3654 27.0098 15.3668 27.0135L15.5812 27.6628C15.5826 27.6683 15.5789 27.672 15.5803 27.6761C15.5812 27.6806 15.5862 27.6824 15.5867 27.6866L15.6253 27.9661L15.7882 27.552C15.7919 27.5429 15.8015 27.5406 15.8066 27.5324C15.8116 27.5251 15.8093 27.5146 15.8162 27.5073L16.1088 27.2C16.1139 27.1945 16.1217 27.1964 16.1277 27.1918C16.1336 27.1872 16.1341 27.1795 16.1401 27.1749L16.3462 27.0573L15.9345 26.7796C15.9303 26.7768 15.9308 26.7704 15.9271 26.7682C15.923 26.7654 15.9174 26.7663 15.9142 26.7627L15.4381 26.2898C15.4358 26.2871 15.4367 26.2844 15.4349 26.2816C15.4317 26.278 15.4266 26.2761 15.4243 26.2725L15.0094 25.6998C15.0076 25.697 15.0089 25.6943 15.0076 25.6916C15.0048 25.6879 15.0002 25.6861 14.9979 25.682L14.6722 25.0495C14.6704 25.0459 14.6727 25.0422 14.6713 25.0399C14.6695 25.0354 14.6653 25.0335 14.6639 25.0304L14.4514 24.3801C14.45 24.3764 14.4533 24.3728 14.4523 24.3687C14.4514 24.3646 14.4464 24.3614 14.4459 24.3573L14.3774 23.8676L12.9109 24.7066L13.019 24.7121Z" fill="url(#paint20_linear_7899_150)"/>
<path d="M15.5149 29.1945L15.6299 29.1288L15.6064 28.9606L15.5149 29.1945Z" fill="url(#paint21_linear_7899_150)"/>
<path d="M15.9156 29.1821C15.9156 29.183 15.9156 29.183 15.9156 29.183C15.9156 29.1839 15.9152 29.1848 15.9156 29.1867L16.1231 29.8182L16.4396 30.4347L16.8416 30.9888L17.3011 31.4448L17.7828 31.7708L18.0247 31.8616L18.2469 31.9446L18.6568 31.9623L18.9907 31.8342L19.2437 31.5688L19.402 31.1671L19.4452 30.6486L19.3619 30.0535L19.1559 29.4265L18.8394 28.81L18.4378 28.256L17.9787 27.8L17.4962 27.4739L17.1314 27.3376L17.0127 27.3321C17.0113 27.3321 17.0109 27.3312 17.0095 27.3312C16.9966 27.3303 16.9828 27.3285 16.9695 27.323L16.8922 27.2947L16.6217 27.2833L16.2878 27.4105L16.0348 27.6769L15.8765 28.0777L15.8337 28.5961L15.9152 29.1803C15.9152 29.1812 15.9152 29.1812 15.9152 29.1812V29.1821H15.9156Z" fill="url(#paint22_linear_7899_150)"/>
<path d="M18.044 26.6842L18.2013 26.2824L18.245 25.764L18.1617 25.1689L17.9561 24.5419L17.6396 23.9254L17.2376 23.3713L16.7785 22.9158L16.2955 22.5893L15.8318 22.416L15.422 22.3987L15.0876 22.5264L14.835 22.7918L14.6768 23.1939L14.6395 23.6454C14.6395 23.6463 14.6386 23.6472 14.6381 23.6481C14.6381 23.6481 14.6386 23.6481 14.6386 23.649L14.6335 23.7124L14.7168 24.3075L14.922 24.9345L15.2389 25.551L15.6396 26.1032L16.1 26.561L16.5812 26.8871L16.6805 26.9236L16.9469 27.0234L17.0646 27.028C17.0729 27.0289 17.0775 27.0362 17.0853 27.0376C17.0932 27.0389 17.1001 27.0339 17.1079 27.0367L17.1856 27.0658L17.4566 27.0772L17.7905 26.9491L18.044 26.6842Z" fill="url(#paint23_linear_7899_150)"/>
<path d="M9.17325 33.1284L8.85677 32.5118L8.45611 31.9596L7.99519 31.5018L7.51357 31.1758L7.33785 31.1106L7.12855 31.1908C7.11245 31.1972 7.09543 31.1999 7.07887 31.1999C7.07887 31.1999 7.07841 31.1999 7.07795 31.1999C7.07657 31.1999 7.07427 31.1999 7.07289 31.1999L6.61151 31.1803C6.61013 31.1803 6.60967 31.1785 6.60829 31.1785C6.59541 31.1776 6.58161 31.1767 6.56873 31.1712L6.35805 31.0928L6.30469 31.1124L6.05353 31.3787L5.89437 31.7804L5.85205 32.2989L5.92105 32.7968C5.92105 32.7978 5.92105 32.7978 5.92105 32.7978L5.93393 32.894L6.14001 33.521L6.45649 34.1375L6.85853 34.6915L7.31669 35.1466L7.79923 35.4727L8.26337 35.6464L8.67461 35.6642L9.00811 35.537L9.26157 35.2706L9.41889 34.8689L9.46167 34.3504L9.37933 33.7554L9.17325 33.1284Z" fill="url(#paint24_linear_7899_150)"/>
<path d="M15.0746 35.184C15.0801 35.1795 15.081 35.1717 15.087 35.1681L15.2885 35.0522C15.288 35.0522 15.288 35.0522 15.288 35.0522C15.2816 35.0486 15.2751 35.0504 15.2692 35.0459L14.7641 34.7039C14.7599 34.7011 14.7604 34.6956 14.7567 34.6934C14.753 34.6911 14.7475 34.6915 14.7443 34.6879L14.2668 34.215C14.2645 34.2123 14.2654 34.2096 14.2636 34.2077C14.2604 34.2041 14.2553 34.2023 14.2526 34.1982L13.8376 33.6254C13.8358 33.6227 13.8372 33.6199 13.8358 33.6172C13.833 33.6136 13.8284 33.6117 13.8261 33.6076L13.5005 32.9752C13.4986 32.9715 13.5009 32.9679 13.4995 32.9656C13.4982 32.961 13.4936 32.9592 13.4922 32.9551L13.3261 32.4467L12.0032 33.2036C11.9986 33.2064 11.994 33.2054 11.9898 33.2073C11.9871 33.2091 11.9866 33.2118 11.9838 33.2136L11.7249 33.3126L12.177 33.6181C12.1812 33.6209 12.1812 33.6263 12.1849 33.6295C12.1885 33.6323 12.1941 33.6304 12.1968 33.6341L12.6738 34.1079C12.6771 34.1106 12.6757 34.1152 12.6784 34.1184C12.6812 34.1211 12.6863 34.1211 12.6881 34.1238L13.103 34.6966C13.1053 34.7002 13.1035 34.7039 13.1053 34.707C13.1081 34.7107 13.1127 34.7107 13.1145 34.7143L13.4393 35.3468C13.4411 35.3514 13.4388 35.355 13.4402 35.3582C13.4416 35.3614 13.4462 35.3628 13.4476 35.3673L13.661 36.0167C13.6624 36.0212 13.6592 36.0258 13.6601 36.0299C13.661 36.0336 13.6656 36.0363 13.6665 36.0404L13.7535 36.6619C13.7544 36.6674 13.7493 36.6715 13.7493 36.677C13.7498 36.6824 13.7548 36.6865 13.7544 36.692L13.7079 37.2451C13.7075 37.2534 13.7001 37.2565 13.6983 37.2638C13.6969 37.2711 13.7015 37.2771 13.6987 37.2835L13.5952 37.547L14.5589 36.9957L14.5056 36.6109C14.5046 36.6054 14.5097 36.6017 14.5097 36.5967C14.5092 36.5912 14.5042 36.5871 14.5046 36.5817L14.5497 36.0285C14.5502 36.0212 14.5575 36.0171 14.5594 36.0098C14.5608 36.0025 14.5562 35.9966 14.5589 35.9902L14.7351 35.5438C14.7388 35.5347 14.7484 35.5324 14.7535 35.5251C14.7586 35.5169 14.7563 35.5073 14.7632 35.5L15.0557 35.1927C15.0612 35.1877 15.0686 35.1886 15.0746 35.184Z" fill="url(#paint25_linear_7899_150)"/>
<path d="M9.58032 35.2128L9.66358 35.1644L9.64656 35.0436L9.58032 35.2128Z" fill="url(#paint26_linear_7899_150)"/>
<path d="M10.1608 33.2283C10.1664 33.2238 10.1673 33.216 10.1733 33.2124L10.4106 33.076L9.99937 32.7992C9.99523 32.7965 9.99523 32.791 9.99155 32.7878C9.98787 32.7851 9.98235 32.786 9.97959 32.7824L9.50257 32.3095C9.50073 32.3077 9.50119 32.304 9.49981 32.3022C9.49567 32.2986 9.49061 32.2967 9.48785 32.2926L9.07385 31.7199C9.07201 31.7172 9.07339 31.7144 9.07201 31.7117C9.06925 31.708 9.06511 31.7062 9.06281 31.7021L8.73713 31.0696C8.73529 31.0669 8.73759 31.0633 8.73621 31.0601C8.73483 31.0569 8.73023 31.0546 8.72885 31.0505L8.53565 30.4618L7.67407 30.9552L8.16121 31.284C8.16535 31.2867 8.16489 31.2931 8.16903 31.2954C8.17271 31.2981 8.17823 31.2972 8.18145 31.3008L8.65755 31.7737C8.66077 31.7774 8.65939 31.7819 8.66215 31.7851C8.66491 31.7878 8.66951 31.7878 8.67181 31.7906L9.08719 32.3633C9.08949 32.366 9.08765 32.3706 9.08995 32.3729C9.09179 32.3765 9.09685 32.3774 9.09869 32.3811L9.42391 33.0136C9.42575 33.0172 9.42345 33.0218 9.42483 33.025C9.42621 33.0282 9.43081 33.0295 9.43219 33.0332L9.64563 33.6834C9.64701 33.688 9.64379 33.6916 9.64471 33.6957C9.64563 33.6998 9.65023 33.7021 9.65115 33.7062L9.68381 33.9424L9.82227 33.59C9.82549 33.5808 9.83515 33.5786 9.84067 33.5713C9.84527 33.563 9.84343 33.5526 9.85033 33.5453L10.1429 33.2379C10.1475 33.232 10.1553 33.2329 10.1608 33.2283Z" fill="url(#paint27_linear_7899_150)"/>
<path d="M18.1029 37.419L17.7869 36.8024L17.3849 36.2484L16.9258 35.7924L16.4433 35.4664L15.9791 35.2926L15.5693 35.2758L15.2358 35.4034L14.9828 35.6688L14.8236 36.0715L14.7817 36.5886L14.8457 37.0482V37.0491L14.865 37.1837L15.0706 37.8116L15.3871 38.4272L15.7891 38.9808L16.2482 39.4368L16.7308 39.7628L17.194 39.9365L17.6043 39.9543L17.9383 39.8262L18.1908 39.5599L18.349 39.1591L18.3923 38.6406L18.309 38.046L18.1029 37.419Z" fill="url(#paint28_linear_7899_150)"/>
<path d="M13.1891 35.4622L12.8731 34.8466L12.4715 34.2925L12.0125 33.8365L11.5304 33.5105L11.0662 33.3368L10.6559 33.319L10.322 33.4476L10.069 33.7139L9.91119 34.1151L9.86841 34.6327L9.94891 35.2155L9.94937 35.2187L9.94891 35.2205L10.1573 35.8557L10.4733 36.4708L10.8753 37.0249L11.3344 37.4809L11.817 37.8069L12.2806 37.9807L12.691 37.9975L13.0245 37.8703L13.2779 37.6049L13.4352 37.2032L13.4785 36.6838L13.3957 36.0901L13.1891 35.4622Z" fill="url(#paint29_linear_7899_150)"/>
<path d="M18.533 39.444L18.5095 39.5028L18.5422 39.4841L18.5321 39.4531C18.5311 39.4504 18.5334 39.4476 18.533 39.444Z" fill="url(#paint30_linear_7899_150)"/>
<path d="M45.2433 26.3313L44.9268 25.7148L44.5252 25.1607L44.0661 24.7056L43.5836 24.3787L43.1199 24.2049L42.8655 24.1945L20.4566 37.0208C20.4525 37.0227 20.4474 37.0217 20.4433 37.0245C20.4405 37.0254 20.4401 37.029 20.4373 37.0299L20.0472 37.1786C20.0307 37.185 20.0141 37.1882 19.9976 37.1882C19.9971 37.1882 19.9971 37.1882 19.9971 37.1882C19.9953 37.1882 19.9934 37.1882 19.9916 37.1882L19.8867 37.1836L19.8389 37.2114L19.9465 37.216C19.9548 37.216 19.9589 37.2242 19.9672 37.2256C19.9746 37.2265 19.9815 37.2219 19.9893 37.2247L20.4898 37.4116C20.4957 37.4134 20.4967 37.4207 20.5017 37.423C20.5068 37.4253 20.5132 37.423 20.5187 37.4267L21.0247 37.7687C21.0289 37.7714 21.0284 37.7769 21.0326 37.7792C21.0362 37.7828 21.0413 37.781 21.0445 37.7846L21.5211 38.2584C21.5243 38.2611 21.5229 38.2657 21.5257 38.2689C21.5284 38.2716 21.5335 38.2716 21.5353 38.2744L21.9503 38.8471C21.9526 38.8498 21.9507 38.8544 21.9526 38.8567C21.9553 38.8603 21.9599 38.8612 21.9618 38.8649L22.2874 39.4974C22.2893 39.501 22.287 39.5056 22.2884 39.5088C22.2897 39.512 22.2943 39.5133 22.2957 39.517L22.5092 40.1672C22.5105 40.1718 22.5073 40.1754 22.5082 40.1786C22.5092 40.1841 22.5138 40.1859 22.5147 40.1909L22.6007 40.8134C22.6016 40.8189 22.5966 40.8225 22.5966 40.8275C22.597 40.833 22.6021 40.8366 22.6016 40.8426L22.5565 41.3948C22.5561 41.403 22.5487 41.4062 22.5469 41.4144C22.5455 41.4208 22.5501 41.4267 22.5473 41.434L22.4429 41.6976L45.0708 28.7467L45.3311 28.4731L45.4894 28.0714L45.5326 27.5529L45.4498 26.9578L45.2433 26.3313Z" fill="url(#paint31_linear_7899_150)"/>
<path d="M22.0372 39.6132L21.7198 38.9971L21.3183 38.444L20.8596 37.988L20.3771 37.662L19.9134 37.4882L19.5026 37.4705L19.1687 37.5977L18.9161 37.864L18.7584 38.2657L18.7156 38.7842L18.7979 39.3779L18.8398 39.5047L19.004 40.0058L19.3209 40.6223L19.7225 41.1764L20.1811 41.6315L20.6637 41.9584L21.1278 42.1312L21.5381 42.149L21.8716 42.0213L22.1242 41.755L22.2833 41.3538L22.3252 40.8353L22.2433 40.2402L22.0372 39.6132Z" fill="url(#paint32_linear_7899_150)"/>
<path d="M19.0082 37.3798C19.0137 37.3752 19.0146 37.3674 19.0206 37.3638L19.4204 37.1349L18.988 36.9721C18.9834 36.9703 18.982 36.9648 18.9783 36.963C18.9723 36.9602 18.9654 36.9611 18.9594 36.9575L18.4534 36.6155C18.4493 36.6128 18.4493 36.6073 18.4456 36.6041C18.4419 36.6014 18.4364 36.6023 18.4337 36.5986L17.9566 36.1258C17.9543 36.1239 17.9553 36.1203 17.9534 36.1185C17.9502 36.1148 17.9451 36.113 17.9424 36.1089L17.527 35.5362C17.5252 35.5343 17.5265 35.5307 17.5252 35.5289C17.5224 35.5243 17.5178 35.5225 17.5155 35.5184L17.1907 34.8859C17.1889 34.8832 17.1912 34.8795 17.1898 34.8763C17.1889 34.8745 17.1866 34.8736 17.1857 34.8708L16.7685 35.1093C16.7639 35.1121 16.7593 35.1112 16.7551 35.113C16.7524 35.1148 16.7519 35.1175 16.7491 35.1185L16.5247 35.2046L16.5564 35.216C16.5619 35.2188 16.5638 35.2252 16.5684 35.2274C16.5743 35.2302 16.5803 35.2274 16.5854 35.2311L17.0914 35.5731C17.0955 35.5758 17.0955 35.5813 17.0992 35.5845C17.1029 35.5872 17.1084 35.5854 17.1112 35.589L17.5882 36.0628C17.5914 36.0656 17.59 36.0701 17.5928 36.0733C17.5955 36.0761 17.6006 36.0761 17.6024 36.0788L18.0174 36.6515C18.0197 36.6552 18.0178 36.6588 18.0197 36.662C18.022 36.6657 18.027 36.6657 18.0289 36.6693L18.3536 37.3027C18.3555 37.3063 18.3532 37.31 18.3545 37.3141C18.3559 37.3177 18.3605 37.3187 18.3619 37.3223L18.5753 37.9716C18.5763 37.9744 18.574 37.9771 18.5744 37.9799L18.6692 37.7405C18.6729 37.7313 18.6825 37.7291 18.6876 37.7208C18.6926 37.7126 18.6903 37.7031 18.6972 37.6958L18.9898 37.3875C18.9944 37.3825 19.0022 37.3839 19.0082 37.3798Z" fill="url(#paint33_linear_7899_150)"/>
<defs>
<linearGradient id="paint0_linear_7899_150" x1="26.2392" y1="4.17517" x2="26.2392" y2="21.6856" gradientUnits="userSpaceOnUse">
<stop stop-color="#BB4807"/>
<stop offset="1" stop-color="#FA8543"/>
</linearGradient>
<linearGradient id="paint1_linear_7899_150" x1="14.0741" y1="17.4589" x2="14.0741" y2="22.137" gradientUnits="userSpaceOnUse">
<stop stop-color="#BB4807"/>
<stop offset="1" stop-color="#FA8543"/>
</linearGradient>
<linearGradient id="paint2_linear_7899_150" x1="11.678" y1="18.9249" x2="11.678" y2="20.0344" gradientUnits="userSpaceOnUse">
<stop stop-color="#BB4807"/>
<stop offset="1" stop-color="#FA8543"/>
</linearGradient>
<linearGradient id="paint3_linear_7899_150" x1="30.1745" y1="14.178" x2="30.1745" y2="31.5101" gradientUnits="userSpaceOnUse">
<stop stop-color="#BB4807"/>
<stop offset="1" stop-color="#FA8543"/>
</linearGradient>
<linearGradient id="paint4_linear_7899_150" x1="28.6052" y1="9.11548" x2="28.6052" y2="26.6254" gradientUnits="userSpaceOnUse">
<stop stop-color="#BB4807"/>
<stop offset="1" stop-color="#FA8543"/>
</linearGradient>
<linearGradient id="paint5_linear_7899_150" x1="4.28304" y1="27.7166" x2="4.28304" y2="33.0417" gradientUnits="userSpaceOnUse">
<stop stop-color="#BB4807"/>
<stop offset="1" stop-color="#FA8543"/>
</linearGradient>
<linearGradient id="paint6_linear_7899_150" x1="3.19028" y1="28.8151" x2="3.19028" y2="33.4936" gradientUnits="userSpaceOnUse">
<stop stop-color="#BB4807"/>
<stop offset="1" stop-color="#FA8543"/>
</linearGradient>
<linearGradient id="paint7_linear_7899_150" x1="16.1235" y1="29.4257" x2="16.1235" y2="32.5306" gradientUnits="userSpaceOnUse">
<stop stop-color="#BB4807"/>
<stop offset="1" stop-color="#FA8543"/>
</linearGradient>
<linearGradient id="paint8_linear_7899_150" x1="10.3233" y1="22.3909" x2="10.3233" y2="27.9062" gradientUnits="userSpaceOnUse">
<stop stop-color="#BB4807"/>
<stop offset="1" stop-color="#FA8543"/>
</linearGradient>
<linearGradient id="paint9_linear_7899_150" x1="6.03838" y1="26.2468" x2="6.03838" y2="30.9258" gradientUnits="userSpaceOnUse">
<stop stop-color="#BB4807"/>
<stop offset="1" stop-color="#FA8543"/>
</linearGradient>
<linearGradient id="paint10_linear_7899_150" x1="8.88536" y1="23.6792" x2="8.88536" y2="28.3582" gradientUnits="userSpaceOnUse">
<stop stop-color="#BB4807"/>
<stop offset="1" stop-color="#FA8543"/>
</linearGradient>
<linearGradient id="paint11_linear_7899_150" x1="7.13091" y1="25.1475" x2="7.13091" y2="30.4735" gradientUnits="userSpaceOnUse">
<stop stop-color="#BB4807"/>
<stop offset="1" stop-color="#FA8543"/>
</linearGradient>
<linearGradient id="paint12_linear_7899_150" x1="11.7569" y1="19.7211" x2="11.7569" y2="24.3996" gradientUnits="userSpaceOnUse">
<stop stop-color="#BB4807"/>
<stop offset="1" stop-color="#FA8543"/>
</linearGradient>
<linearGradient id="paint13_linear_7899_150" x1="12.4162" y1="27.6335" x2="12.4162" y2="32.6427" gradientUnits="userSpaceOnUse">
<stop stop-color="#BB4807"/>
<stop offset="1" stop-color="#FA8543"/>
</linearGradient>
<linearGradient id="paint14_linear_7899_150" x1="15.2298" y1="30.324" x2="15.2298" y2="35.003" gradientUnits="userSpaceOnUse">
<stop stop-color="#BB4807"/>
<stop offset="1" stop-color="#FA8543"/>
</linearGradient>
<linearGradient id="paint15_linear_7899_150" x1="18.9576" y1="32.2341" x2="18.9576" y2="36.9127" gradientUnits="userSpaceOnUse">
<stop stop-color="#BB4807"/>
<stop offset="1" stop-color="#FA8543"/>
</linearGradient>
<linearGradient id="paint16_linear_7899_150" x1="10.504" y1="28.5251" x2="10.504" y2="33.0965" gradientUnits="userSpaceOnUse">
<stop stop-color="#BB4807"/>
<stop offset="1" stop-color="#FA8543"/>
</linearGradient>
<linearGradient id="paint17_linear_7899_150" x1="31.4321" y1="19.0758" x2="31.4321" y2="36.4613" gradientUnits="userSpaceOnUse">
<stop stop-color="#BB4807"/>
<stop offset="1" stop-color="#FA8543"/>
</linearGradient>
<linearGradient id="paint18_linear_7899_150" x1="13.6132" y1="24.9669" x2="13.6132" y2="29.6455" gradientUnits="userSpaceOnUse">
<stop stop-color="#BB4807"/>
<stop offset="1" stop-color="#FA8543"/>
</linearGradient>
<linearGradient id="paint19_linear_7899_150" x1="14.1899" y1="21.8209" x2="14.1899" y2="23.9463" gradientUnits="userSpaceOnUse">
<stop stop-color="#BB4807"/>
<stop offset="1" stop-color="#FA8543"/>
</linearGradient>
<linearGradient id="paint20_linear_7899_150" x1="14.6285" y1="23.8676" x2="14.6285" y2="27.9661" gradientUnits="userSpaceOnUse">
<stop stop-color="#BB4807"/>
<stop offset="1" stop-color="#FA8543"/>
</linearGradient>
<linearGradient id="paint21_linear_7899_150" x1="15.5724" y1="28.9606" x2="15.5724" y2="29.1945" gradientUnits="userSpaceOnUse">
<stop stop-color="#BB4807"/>
<stop offset="1" stop-color="#FA8543"/>
</linearGradient>
<linearGradient id="paint22_linear_7899_150" x1="17.6395" y1="27.2833" x2="17.6395" y2="31.9623" gradientUnits="userSpaceOnUse">
<stop stop-color="#BB4807"/>
<stop offset="1" stop-color="#FA8543"/>
</linearGradient>
<linearGradient id="paint23_linear_7899_150" x1="16.4393" y1="22.3987" x2="16.4393" y2="27.0772" gradientUnits="userSpaceOnUse">
<stop stop-color="#BB4807"/>
<stop offset="1" stop-color="#FA8543"/>
</linearGradient>
<linearGradient id="paint24_linear_7899_150" x1="7.65686" y1="31.0928" x2="7.65686" y2="35.6642" gradientUnits="userSpaceOnUse">
<stop stop-color="#BB4807"/>
<stop offset="1" stop-color="#FA8543"/>
</linearGradient>
<linearGradient id="paint25_linear_7899_150" x1="13.5067" y1="32.4467" x2="13.5067" y2="37.547" gradientUnits="userSpaceOnUse">
<stop stop-color="#BB4807"/>
<stop offset="1" stop-color="#FA8543"/>
</linearGradient>
<linearGradient id="paint26_linear_7899_150" x1="9.62195" y1="35.0436" x2="9.62195" y2="35.2128" gradientUnits="userSpaceOnUse">
<stop stop-color="#BB4807"/>
<stop offset="1" stop-color="#FA8543"/>
</linearGradient>
<linearGradient id="paint27_linear_7899_150" x1="9.04234" y1="30.4618" x2="9.04234" y2="33.9424" gradientUnits="userSpaceOnUse">
<stop stop-color="#BB4807"/>
<stop offset="1" stop-color="#FA8543"/>
</linearGradient>
<linearGradient id="paint28_linear_7899_150" x1="16.587" y1="35.2758" x2="16.587" y2="39.9543" gradientUnits="userSpaceOnUse">
<stop stop-color="#BB4807"/>
<stop offset="1" stop-color="#FA8543"/>
</linearGradient>
<linearGradient id="paint29_linear_7899_150" x1="11.6734" y1="33.319" x2="11.6734" y2="37.9975" gradientUnits="userSpaceOnUse">
<stop stop-color="#BB4807"/>
<stop offset="1" stop-color="#FA8543"/>
</linearGradient>
<linearGradient id="paint30_linear_7899_150" x1="18.5259" y1="39.444" x2="18.5259" y2="39.5028" gradientUnits="userSpaceOnUse">
<stop stop-color="#BB4807"/>
<stop offset="1" stop-color="#FA8543"/>
</linearGradient>
<linearGradient id="paint31_linear_7899_150" x1="32.6857" y1="24.1945" x2="32.6857" y2="41.6976" gradientUnits="userSpaceOnUse">
<stop stop-color="#BB4807"/>
<stop offset="1" stop-color="#FA8543"/>
</linearGradient>
<linearGradient id="paint32_linear_7899_150" x1="20.5204" y1="37.4705" x2="20.5204" y2="42.149" gradientUnits="userSpaceOnUse">
<stop stop-color="#BB4807"/>
<stop offset="1" stop-color="#FA8543"/>
</linearGradient>
<linearGradient id="paint33_linear_7899_150" x1="17.9725" y1="34.8708" x2="17.9725" y2="37.9799" gradientUnits="userSpaceOnUse">
<stop stop-color="#BB4807"/>
<stop offset="1" stop-color="#FA8543"/>
</linearGradient>
</defs>
</svg>
